<?xml version="1.0" encoding="us-ascii" standalone="no"?><svg xmlns="http://www.w3.org/2000/svg" xmlns:xlink="http://www.w3.org/1999/xlink" contentStyleType="text/css" height="929px" preserveAspectRatio="none" style="width:1531px;height:929px;background:#FFFFFF;" version="1.1" viewBox="0 0 1531 929" width="1531px" zoomAndPan="magnify"><defs/><g><rect fill="#F5F5F5" height="910.7734" style="stroke:#181818;stroke-width:0.5;" width="222" x="236" y="6"/><text fill="#000000" font-family="sans-serif" font-size="18" font-weight="bold" lengthAdjust="spacing" textLength="140" x="277" y="22.708">Prim&#228;rsystem</text><text fill="#000000" font-family="sans-serif" font-size="13" font-weight="bold" lengthAdjust="spacing" textLength="5" x="277" y="39.02">&#160;</text><rect fill="#F5F5F5" height="910.7734" style="stroke:#181818;stroke-width:0.5;" width="222" x="490" y="6"/><text fill="#000000" font-family="sans-serif" font-size="18" font-weight="bold" lengthAdjust="spacing" textLength="121" x="540.5" y="22.708">Clientmodul</text><text fill="#000000" font-family="sans-serif" font-size="13" font-weight="bold" lengthAdjust="spacing" textLength="5" x="540.5" y="39.02">&#160;</text><rect fill="#F5F5F5" height="910.7734" style="stroke:#181818;stroke-width:0.5;" width="748" x="777" y="6"/><text fill="#000000" font-family="sans-serif" font-size="18" font-weight="bold" lengthAdjust="spacing" textLength="112" x="1095" y="22.708">Fachdienst</text><text fill="#000000" font-family="sans-serif" font-size="13" font-weight="bold" lengthAdjust="spacing" textLength="5" x="1095" y="39.02">&#160;</text><rect fill="#DCDCDC" height="780.7031" style="stroke:#000000;stroke-width:1.0;" width="10" x="342" y="124.0703"/><rect fill="#DCDCDC" height="755.9141" style="stroke:#000000;stroke-width:1.0;" width="10" x="596" y="157.8594"/><rect fill="#DCDCDC" height="127.3672" style="stroke:#000000;stroke-width:1.0;" width="10" x="1107" y="483.0938"/><rect fill="#DCDCDC" height="33.7891" style="stroke:#000000;stroke-width:1.0;" width="10" x="1409" y="191.6484"/><line style="stroke:#000000;stroke-width:0.5;stroke-dasharray:5.0,5.0;" x1="117" x2="117" y1="88.2813" y2="922.7734"/><line style="stroke:#000000;stroke-width:0.5;stroke-dasharray:5.0,5.0;" x1="347" x2="347" y1="88.2813" y2="922.7734"/><line style="stroke:#000000;stroke-width:0.5;stroke-dasharray:5.0,5.0;" x1="601" x2="601" y1="88.2813" y2="922.7734"/><line style="stroke:#000000;stroke-width:0.5;stroke-dasharray:5.0,5.0;" x1="888" x2="888" y1="88.2813" y2="922.7734"/><line style="stroke:#000000;stroke-width:0.5;stroke-dasharray:5.0,5.0;" x1="1112" x2="1112" y1="88.2813" y2="922.7734"/><line style="stroke:#000000;stroke-width:0.5;stroke-dasharray:5.0,5.0;" x1="1414" x2="1414" y1="88.2813" y2="922.7734"/><text fill="#000000" font-family="Aapex" font-size="20" lengthAdjust="spacing" textLength="189" x="20" y="83.5645">Leistungserbringer</text><ellipse cx="117.5" cy="13.5" fill="#DCDCDC" rx="8" ry="8" style="stroke:#000000;stroke-width:0.5;"/><path d="M117.5,21.5 L117.5,48.5 M104.5,29.5 L130.5,29.5 M117.5,48.5 L104.5,63.5 M117.5,48.5 L130.5,63.5 " fill="none" style="stroke:#000000;stroke-width:0.5;"/><rect fill="#EFEFFF" height="37.2813" rx="2.5" ry="2.5" style="stroke:#000000;stroke-width:0.5;" width="214" x="240" y="50"/><text fill="#000000" font-family="sans-serif" font-size="20" lengthAdjust="spacing" textLength="182" x="256" y="75.5645">PVS/KIS/Mailclient</text><rect fill="#EFEFFF" height="37.2813" rx="2.5" ry="2.5" style="stroke:#000000;stroke-width:0.5;" width="214" x="494" y="50"/><text fill="#000000" font-family="sans-serif" font-size="20" lengthAdjust="spacing" textLength="107" x="547.5" y="75.5645">KIM-Dienst</text><rect fill="#EFEFFF" height="37.2813" rx="2.5" ry="2.5" style="stroke:#000000;stroke-width:0.5;" width="214" x="781" y="50"/><text fill="#000000" font-family="sans-serif" font-size="20" lengthAdjust="spacing" textLength="176" x="800" y="75.5645">Account-Manager</text><rect fill="#EFEFFF" height="37.2813" rx="2.5" ry="2.5" style="stroke:#000000;stroke-width:0.5;" width="214" x="1005" y="50"/><text fill="#000000" font-family="sans-serif" font-size="20" lengthAdjust="spacing" textLength="40" x="1092" y="75.5645">KAS</text><rect fill="#EFEFFF" height="37.2813" rx="2.5" ry="2.5" style="stroke:#000000;stroke-width:0.5;" width="214" x="1307" y="50"/><text fill="#000000" font-family="sans-serif" font-size="20" lengthAdjust="spacing" textLength="102" x="1363" y="75.5645">Mailserver</text><rect fill="#DCDCDC" height="780.7031" style="stroke:#000000;stroke-width:1.0;" width="10" x="342" y="124.0703"/><rect fill="#DCDCDC" height="755.9141" style="stroke:#000000;stroke-width:1.0;" width="10" x="596" y="157.8594"/><rect fill="#DCDCDC" height="127.3672" style="stroke:#000000;stroke-width:1.0;" width="10" x="1107" y="483.0938"/><rect fill="#DCDCDC" height="33.7891" style="stroke:#000000;stroke-width:1.0;" width="10" x="1409" y="191.6484"/><polygon fill="#000000" points="330,120.0703,340,124.0703,330,128.0703,334,124.0703" style="stroke:#000000;stroke-width:1.0;"/><line style="stroke:#000000;stroke-width:1.0;" x1="117.5" x2="336" y1="124.0703" y2="124.0703"/><text fill="#000000" font-family="sans-serif" font-size="17" lengthAdjust="spacing" textLength="105" x="124.5" y="118.061">Mail abrufen</text><polygon fill="#000000" points="584,153.8594,594,157.8594,584,161.8594,588,157.8594" style="stroke:#000000;stroke-width:1.0;"/><line style="stroke:#000000;stroke-width:1.0;" x1="352" x2="590" y1="157.8594" y2="157.8594"/><text fill="#000000" font-family="sans-serif" font-size="17" lengthAdjust="spacing" textLength="105" x="359" y="151.8501">Mail abrufen</text><polygon fill="#000000" points="1397,187.6484,1407,191.6484,1397,195.6484,1401,191.6484" style="stroke:#000000;stroke-width:1.0;"/><line style="stroke:#000000;stroke-width:1.0;" x1="606" x2="1403" y1="191.6484" y2="191.6484"/><text fill="#000000" font-family="sans-serif" font-size="17" lengthAdjust="spacing" textLength="136" x="613" y="185.6392">receive Message</text><polygon fill="#000000" points="617,221.4375,607,225.4375,617,229.4375,613,225.4375" style="stroke:#000000;stroke-width:1.0;"/><line style="stroke:#000000;stroke-width:1.0;stroke-dasharray:2.0,2.0;" x1="611" x2="1413" y1="225.4375" y2="225.4375"/><text fill="#000000" font-family="sans-serif" font-size="17" lengthAdjust="spacing" textLength="107" x="1300" y="219.4282">KOM-LE-Mail</text><line style="stroke:#000000;stroke-width:1.0;" x1="606" x2="648" y1="279.0156" y2="279.0156"/><line style="stroke:#000000;stroke-width:1.0;" x1="648" x2="648" y1="279.0156" y2="292.0156"/><line style="stroke:#000000;stroke-width:1.0;" x1="607" x2="648" y1="292.0156" y2="292.0156"/><polygon fill="#000000" points="617,288.0156,607,292.0156,617,296.0156,613,292.0156" style="stroke:#000000;stroke-width:1.0;"/><text fill="#000000" font-family="sans-serif" font-size="17" lengthAdjust="spacing" textLength="207" x="613" y="253.2173">E-Mail entschl&#252;sseln und</text><text fill="#000000" font-family="sans-serif" font-size="17" lengthAdjust="spacing" textLength="132" x="618" y="273.0063">Signatur pr&#252;fen</text><line style="stroke:#000000;stroke-width:1.0;" x1="606" x2="648" y1="325.8047" y2="325.8047"/><line style="stroke:#000000;stroke-width:1.0;" x1="648" x2="648" y1="325.8047" y2="338.8047"/><line style="stroke:#000000;stroke-width:1.0;" x1="607" x2="648" y1="338.8047" y2="338.8047"/><polygon fill="#000000" points="617,334.8047,607,338.8047,617,342.8047,613,338.8047" style="stroke:#000000;stroke-width:1.0;"/><text fill="#000000" font-family="sans-serif" font-size="17" lengthAdjust="spacing" textLength="193" x="613" y="319.7954">Pr&#252;fen der KIM-Version</text><line style="stroke:#000000;stroke-width:1.0;" x1="606" x2="648" y1="436.3047" y2="436.3047"/><line style="stroke:#000000;stroke-width:1.0;" x1="648" x2="648" y1="436.3047" y2="449.3047"/><line style="stroke:#000000;stroke-width:1.0;" x1="607" x2="648" y1="449.3047" y2="449.3047"/><polygon fill="#000000" points="617,445.3047,607,449.3047,617,453.3047,613,449.3047" style="stroke:#000000;stroke-width:1.0;"/><text fill="#000000" font-family="sans-serif" font-size="17" lengthAdjust="spacing" textLength="227" x="613" y="390.7173">KAS-Informationen aus der</text><text fill="#000000" font-family="sans-serif" font-size="17" lengthAdjust="spacing" textLength="263" x="613" y="410.5063">KIM-Attachment-Datenstruktur</text><text fill="#000000" font-family="sans-serif" font-size="17" lengthAdjust="spacing" textLength="98" x="613" y="430.2954">extrahieren</text><polygon fill="#000000" points="1095,479.0938,1105,483.0938,1095,487.0938,1099,483.0938" style="stroke:#000000;stroke-width:1.0;"/><line style="stroke:#000000;stroke-width:1.0;" x1="606" x2="1101" y1="483.0938" y2="483.0938"/><text fill="#000000" font-family="sans-serif" font-size="17" lengthAdjust="spacing" textLength="146" x="613" y="477.0845">readAttachement</text><line style="stroke:#000000;stroke-width:1.0;" x1="1117" x2="1159" y1="516.8828" y2="516.8828"/><line style="stroke:#000000;stroke-width:1.0;" x1="1159" x2="1159" y1="516.8828" y2="529.8828"/><line style="stroke:#000000;stroke-width:1.0;" x1="1118" x2="1159" y1="529.8828" y2="529.8828"/><polygon fill="#000000" points="1128,525.8828,1118,529.8828,1128,533.8828,1124,529.8828" style="stroke:#000000;stroke-width:1.0;"/><text fill="#000000" font-family="sans-serif" font-size="17" lengthAdjust="spacing" textLength="172" x="1124" y="510.8735">Berechtigung pr&#252;fen</text><line style="stroke:#000000;stroke-width:1.0;" x1="1117" x2="1159" y1="563.6719" y2="563.6719"/><line style="stroke:#000000;stroke-width:1.0;" x1="1159" x2="1159" y1="563.6719" y2="576.6719"/><line style="stroke:#000000;stroke-width:1.0;" x1="1118" x2="1159" y1="576.6719" y2="576.6719"/><polygon fill="#000000" points="1128,572.6719,1118,576.6719,1128,580.6719,1124,576.6719" style="stroke:#000000;stroke-width:1.0;"/><text fill="#000000" font-family="sans-serif" font-size="17" lengthAdjust="spacing" textLength="278" x="1124" y="557.6626">verschl&#252;sselte Client-Mail suchen</text><polygon fill="#000000" points="617,606.4609,607,610.4609,617,614.4609,613,610.4609" style="stroke:#000000;stroke-width:1.0;"/><line style="stroke:#000000;stroke-width:1.0;stroke-dasharray:2.0,2.0;" x1="611" x2="1111" y1="610.4609" y2="610.4609"/><text fill="#000000" font-family="sans-serif" font-size="17" lengthAdjust="spacing" textLength="214" x="891" y="604.4517">verschl&#252;sselte Client-Mail</text><line style="stroke:#000000;stroke-width:1.0;" x1="606" x2="648" y1="683.8281" y2="683.8281"/><line style="stroke:#000000;stroke-width:1.0;" x1="648" x2="648" y1="683.8281" y2="696.8281"/><line style="stroke:#000000;stroke-width:1.0;" x1="607" x2="648" y1="696.8281" y2="696.8281"/><polygon fill="#000000" points="617,692.8281,607,696.8281,617,700.8281,613,696.8281" style="stroke:#000000;stroke-width:1.0;"/><text fill="#000000" font-family="sans-serif" font-size="17" lengthAdjust="spacing" textLength="167" x="613" y="638.2407">Client-Mail mit dem</text><text fill="#000000" font-family="sans-serif" font-size="17" lengthAdjust="spacing" textLength="211" x="613" y="658.0298">symmetrischen Schl&#252;ssel</text><text fill="#000000" font-family="sans-serif" font-size="17" lengthAdjust="spacing" textLength="113" x="613" y="677.8188">entschl&#252;sseln</text><line style="stroke:#000000;stroke-width:1.0;" x1="606" x2="648" y1="730.6172" y2="730.6172"/><line style="stroke:#000000;stroke-width:1.0;" x1="648" x2="648" y1="730.6172" y2="743.6172"/><line style="stroke:#000000;stroke-width:1.0;" x1="607" x2="648" y1="743.6172" y2="743.6172"/><polygon fill="#000000" points="617,739.6172,607,743.6172,617,747.6172,613,743.6172" style="stroke:#000000;stroke-width:1.0;"/><text fill="#000000" font-family="sans-serif" font-size="17" lengthAdjust="spacing" textLength="201" x="613" y="724.6079">Bildung des Hashwertes</text><line style="stroke:#000000;stroke-width:1.0;" x1="606" x2="648" y1="777.4063" y2="777.4063"/><line style="stroke:#000000;stroke-width:1.0;" x1="648" x2="648" y1="777.4063" y2="790.4063"/><line style="stroke:#000000;stroke-width:1.0;" x1="607" x2="648" y1="790.4063" y2="790.4063"/><polygon fill="#000000" points="617,786.4063,607,790.4063,617,794.4063,613,790.4063" style="stroke:#000000;stroke-width:1.0;"/><text fill="#000000" font-family="sans-serif" font-size="17" lengthAdjust="spacing" textLength="205" x="613" y="771.397">Vergleich der Hashwerte</text><line style="stroke:#000000;stroke-width:1.0;" x1="606" x2="648" y1="824.1953" y2="824.1953"/><line style="stroke:#000000;stroke-width:1.0;" x1="648" x2="648" y1="824.1953" y2="837.1953"/><line style="stroke:#000000;stroke-width:1.0;" x1="607" x2="648" y1="837.1953" y2="837.1953"/><polygon fill="#000000" points="617,833.1953,607,837.1953,617,841.1953,613,837.1953" style="stroke:#000000;stroke-width:1.0;"/><text fill="#000000" font-family="sans-serif" font-size="17" lengthAdjust="spacing" textLength="193" x="613" y="818.186">Client-Mail aufbereiten</text><polygon fill="#000000" points="363,866.9844,353,870.9844,363,874.9844,359,870.9844" style="stroke:#000000;stroke-width:1.0;"/><line style="stroke:#000000;stroke-width:1.0;stroke-dasharray:2.0,2.0;" x1="357" x2="595" y1="870.9844" y2="870.9844"/><text fill="#000000" font-family="sans-serif" font-size="17" lengthAdjust="spacing" textLength="91" x="498" y="864.9751">Client-Mail</text><polygon fill="#000000" points="128.5,900.7734,118.5,904.7734,128.5,908.7734,124.5,904.7734" style="stroke:#000000;stroke-width:1.0;"/><line style="stroke:#000000;stroke-width:1.0;stroke-dasharray:2.0,2.0;" x1="122.5" x2="346" y1="904.7734" y2="904.7734"/><text fill="#000000" font-family="sans-serif" font-size="17" lengthAdjust="spacing" textLength="91" x="249" y="898.7642">Client-Mail</text><!--SRC=[ZLJBRjim4BppAnRjCH3oG8i6GM50Jfh6i9K8LP1SSg6bjKHO8bsISfmM_Pj-HcxviIufss5Sswq10_RkxCpkB4ap5NB6DM_0uFSMPOu96iDBZ6jHIYY4njmA9PbP0niXpsjkpBqeR0KdHqT1hgyMAIyA8Kiu_XZ4L-JVS8BQ_RX2Ng3kytnQQjNAubpLIiECrrXgH9BBwISqV4427qxXqMcnIXG84wNiM2tO5dRuoMAjrMD7Dgw9lGjSAcapyGFX-1EBSwjqNscI3t4ZCS6HaBWdiz7iLowa6Ikj64kvjY8NCovjM9yeA-RSsnSYDdYsezOjdnnjXiFcTYZt_qfkYjxS3kxYsy7DDLiwidCwdzxKNGTNFQu3rxn1YFaC5-mN0__XBWSZu0RUZL0OsyhIe1vhEYUetorHj5JuR8ZkxFYqbshHlFpMvibOR1ualB-lXCMiKLDSmhlFx7L4IBr0UfST3WVPOS95dTS2fLq9e2oSo3QvSmziLD7MMyL2cM7YTOQ39BgWAlC__9SyhmeF_YTztD77UKxBi5729GzCUjD8rqUSRKiccSyw5yZg-Il3gaisYdhf6JW0yB5k9tJhtARSMKH86QHHRvZi10mJHj-ebsG71sT0hmIAESBoyM0a7xdoA3g3uKqIZRv4ZgShSQpTVsh6chogNvwDmLe2dJxo9wENXzkMdWFzyknLLrLf5m0wv-3ylqDjtBq1DRC-45jBJZT46rrGb-ItRgUEQgvqnMKHaf5nqK1Eb6xyvIDQtXf7_I3tKJr8N5ZDA-4UiYMRCu0NNGMwaj0emdX8dmhooegIJdymci_HVbvzeABkF7OUcPP8FRBhUm-MKVkXy7hMaAyHbc1qgSnJqw3LmZX-oDQSDE6RjGGyVL4Nhlq23LnnKpsYjcW206sah57abT_H6hAZ5TvEnkGAtOQbY3-IRmRQd2Wbp6WF9lq3]--></g></svg>