<?xml version="1.0" encoding="us-ascii" standalone="no"?><svg xmlns="http://www.w3.org/2000/svg" xmlns:xlink="http://www.w3.org/1999/xlink" contentStyleType="text/css" height="936px" preserveAspectRatio="none" style="width:1516px;height:936px;background:#FFFFFF;" version="1.1" viewBox="0 0 1516 936" width="1516px" zoomAndPan="magnify"><defs/><g><rect fill="#F5F5F5" height="917.7734" style="stroke:#181818;stroke-width:0.5;" width="222" x="221" y="6"/><text fill="#000000" font-family="sans-serif" font-size="18" font-weight="bold" lengthAdjust="spacing" textLength="140" x="262" y="22.708">Prim&#228;rsystem</text><text fill="#000000" font-family="sans-serif" font-size="13" font-weight="bold" lengthAdjust="spacing" textLength="5" x="262" y="39.02">&#160;</text><rect fill="#F5F5F5" height="917.7734" style="stroke:#181818;stroke-width:0.5;" width="222" x="475" y="6"/><text fill="#000000" font-family="sans-serif" font-size="18" font-weight="bold" lengthAdjust="spacing" textLength="121" x="525.5" y="22.708">Clientmodul</text><text fill="#000000" font-family="sans-serif" font-size="13" font-weight="bold" lengthAdjust="spacing" textLength="5" x="525.5" y="39.02">&#160;</text><rect fill="#F5F5F5" height="917.7734" style="stroke:#181818;stroke-width:0.5;" width="748" x="762" y="6"/><text fill="#000000" font-family="sans-serif" font-size="18" font-weight="bold" lengthAdjust="spacing" textLength="112" x="1080" y="22.708">Fachdienst</text><text fill="#000000" font-family="sans-serif" font-size="13" font-weight="bold" lengthAdjust="spacing" textLength="5" x="1080" y="39.02">&#160;</text><rect fill="#DCDCDC" height="787.7031" style="stroke:#000000;stroke-width:1.0;" width="10" x="327" y="124.0703"/><rect fill="#DCDCDC" height="762.9141" style="stroke:#000000;stroke-width:1.0;" width="10" x="581" y="157.8594"/><rect fill="#DCDCDC" height="127.3672" style="stroke:#000000;stroke-width:1.0;" width="10" x="1092" y="483.0938"/><rect fill="#DCDCDC" height="33.7891" style="stroke:#000000;stroke-width:1.0;" width="10" x="1394" y="191.6484"/><rect fill="none" height="491.3906" style="stroke:#000000;stroke-width:1.5;" width="930" x="469" y="353.8047"/><line style="stroke:#000000;stroke-width:0.5;stroke-dasharray:5.0,5.0;" x1="102" x2="102" y1="88.2813" y2="929.7734"/><line style="stroke:#000000;stroke-width:0.5;stroke-dasharray:5.0,5.0;" x1="332" x2="332" y1="88.2813" y2="929.7734"/><line style="stroke:#000000;stroke-width:0.5;stroke-dasharray:5.0,5.0;" x1="586" x2="586" y1="88.2813" y2="929.7734"/><line style="stroke:#000000;stroke-width:0.5;stroke-dasharray:5.0,5.0;" x1="873" x2="873" y1="88.2813" y2="929.7734"/><line style="stroke:#000000;stroke-width:0.5;stroke-dasharray:5.0,5.0;" x1="1097" x2="1097" y1="88.2813" y2="929.7734"/><line style="stroke:#000000;stroke-width:0.5;stroke-dasharray:5.0,5.0;" x1="1399" x2="1399" y1="88.2813" y2="929.7734"/><text fill="#000000" font-family="Aapex" font-size="20" lengthAdjust="spacing" textLength="189" x="5" y="83.5645">Leistungserbringer</text><ellipse cx="102.5" cy="13.5" fill="#DCDCDC" rx="8" ry="8" style="stroke:#000000;stroke-width:0.5;"/><path d="M102.5,21.5 L102.5,48.5 M89.5,29.5 L115.5,29.5 M102.5,48.5 L89.5,63.5 M102.5,48.5 L115.5,63.5 " fill="none" style="stroke:#000000;stroke-width:0.5;"/><rect fill="#EFEFFF" height="37.2813" rx="2.5" ry="2.5" style="stroke:#000000;stroke-width:0.5;" width="214" x="225" y="50"/><text fill="#000000" font-family="sans-serif" font-size="20" lengthAdjust="spacing" textLength="182" x="241" y="75.5645">PVS/KIS/Mailclient</text><rect fill="#EFEFFF" height="37.2813" rx="2.5" ry="2.5" style="stroke:#000000;stroke-width:0.5;" width="214" x="479" y="50"/><text fill="#000000" font-family="sans-serif" font-size="20" lengthAdjust="spacing" textLength="107" x="532.5" y="75.5645">KIM-Dienst</text><rect fill="#EFEFFF" height="37.2813" rx="2.5" ry="2.5" style="stroke:#000000;stroke-width:0.5;" width="214" x="766" y="50"/><text fill="#000000" font-family="sans-serif" font-size="20" lengthAdjust="spacing" textLength="176" x="785" y="75.5645">Account-Manager</text><rect fill="#EFEFFF" height="37.2813" rx="2.5" ry="2.5" style="stroke:#000000;stroke-width:0.5;" width="214" x="990" y="50"/><text fill="#000000" font-family="sans-serif" font-size="20" lengthAdjust="spacing" textLength="40" x="1077" y="75.5645">KAS</text><rect fill="#EFEFFF" height="37.2813" rx="2.5" ry="2.5" style="stroke:#000000;stroke-width:0.5;" width="214" x="1292" y="50"/><text fill="#000000" font-family="sans-serif" font-size="20" lengthAdjust="spacing" textLength="102" x="1348" y="75.5645">Mailserver</text><rect fill="#DCDCDC" height="787.7031" style="stroke:#000000;stroke-width:1.0;" width="10" x="327" y="124.0703"/><rect fill="#DCDCDC" height="762.9141" style="stroke:#000000;stroke-width:1.0;" width="10" x="581" y="157.8594"/><rect fill="#DCDCDC" height="127.3672" style="stroke:#000000;stroke-width:1.0;" width="10" x="1092" y="483.0938"/><rect fill="#DCDCDC" height="33.7891" style="stroke:#000000;stroke-width:1.0;" width="10" x="1394" y="191.6484"/><polygon fill="#000000" points="315,120.0703,325,124.0703,315,128.0703,319,124.0703" style="stroke:#000000;stroke-width:1.0;"/><line style="stroke:#000000;stroke-width:1.0;" x1="102.5" x2="321" y1="124.0703" y2="124.0703"/><text fill="#000000" font-family="sans-serif" font-size="17" lengthAdjust="spacing" textLength="105" x="109.5" y="118.061">Mail abrufen</text><polygon fill="#000000" points="569,153.8594,579,157.8594,569,161.8594,573,157.8594" style="stroke:#000000;stroke-width:1.0;"/><line style="stroke:#000000;stroke-width:1.0;" x1="337" x2="575" y1="157.8594" y2="157.8594"/><text fill="#000000" font-family="sans-serif" font-size="17" lengthAdjust="spacing" textLength="105" x="344" y="151.8501">Mail abrufen</text><polygon fill="#000000" points="1382,187.6484,1392,191.6484,1382,195.6484,1386,191.6484" style="stroke:#000000;stroke-width:1.0;"/><line style="stroke:#000000;stroke-width:1.0;" x1="591" x2="1388" y1="191.6484" y2="191.6484"/><text fill="#000000" font-family="sans-serif" font-size="17" lengthAdjust="spacing" textLength="136" x="598" y="185.6392">receive Message</text><polygon fill="#000000" points="602,221.4375,592,225.4375,602,229.4375,598,225.4375" style="stroke:#000000;stroke-width:1.0;"/><line style="stroke:#000000;stroke-width:1.0;stroke-dasharray:2.0,2.0;" x1="596" x2="1398" y1="225.4375" y2="225.4375"/><text fill="#000000" font-family="sans-serif" font-size="17" lengthAdjust="spacing" textLength="107" x="1285" y="219.4282">KOM-LE-Mail</text><line style="stroke:#000000;stroke-width:1.0;" x1="591" x2="633" y1="279.0156" y2="279.0156"/><line style="stroke:#000000;stroke-width:1.0;" x1="633" x2="633" y1="279.0156" y2="292.0156"/><line style="stroke:#000000;stroke-width:1.0;" x1="592" x2="633" y1="292.0156" y2="292.0156"/><polygon fill="#000000" points="602,288.0156,592,292.0156,602,296.0156,598,292.0156" style="stroke:#000000;stroke-width:1.0;"/><text fill="#000000" font-family="sans-serif" font-size="17" lengthAdjust="spacing" textLength="207" x="598" y="253.2173">E-Mail entschl&#252;sseln und</text><text fill="#000000" font-family="sans-serif" font-size="17" lengthAdjust="spacing" textLength="132" x="603" y="273.0063">Signatur pr&#252;fen</text><line style="stroke:#000000;stroke-width:1.0;" x1="591" x2="633" y1="325.8047" y2="325.8047"/><line style="stroke:#000000;stroke-width:1.0;" x1="633" x2="633" y1="325.8047" y2="338.8047"/><line style="stroke:#000000;stroke-width:1.0;" x1="592" x2="633" y1="338.8047" y2="338.8047"/><polygon fill="#000000" points="602,334.8047,592,338.8047,602,342.8047,598,338.8047" style="stroke:#000000;stroke-width:1.0;"/><text fill="#000000" font-family="sans-serif" font-size="17" lengthAdjust="spacing" textLength="193" x="598" y="319.7954">Pr&#252;fen der KIM-Version</text><path d="M469,353.8047 L539,353.8047 L539,360.9375 L529,370.9375 L469,370.9375 L469,353.8047 " fill="#EEEEEE" style="stroke:#000000;stroke-width:1.5;"/><rect fill="none" height="491.3906" style="stroke:#000000;stroke-width:1.5;" width="930" x="469" y="353.8047"/><text fill="#000000" font-family="sans-serif" font-size="13" font-weight="bold" lengthAdjust="spacing" textLength="25" x="484" y="366.8716">opt</text><text fill="#000000" font-family="sans-serif" font-size="11" font-weight="bold" lengthAdjust="spacing" textLength="277" x="554" y="366.0151">[KIM-Attachment-Datenstruktur vorhanden]</text><line style="stroke:#000000;stroke-width:1.0;" x1="591" x2="633" y1="436.3047" y2="436.3047"/><line style="stroke:#000000;stroke-width:1.0;" x1="633" x2="633" y1="436.3047" y2="449.3047"/><line style="stroke:#000000;stroke-width:1.0;" x1="592" x2="633" y1="449.3047" y2="449.3047"/><polygon fill="#000000" points="602,445.3047,592,449.3047,602,453.3047,598,449.3047" style="stroke:#000000;stroke-width:1.0;"/><text fill="#000000" font-family="sans-serif" font-size="17" lengthAdjust="spacing" textLength="227" x="598" y="390.7173">KAS-Informationen aus der</text><text fill="#000000" font-family="sans-serif" font-size="17" lengthAdjust="spacing" textLength="263" x="598" y="410.5063">KIM-Attachment-Datenstruktur</text><text fill="#000000" font-family="sans-serif" font-size="17" lengthAdjust="spacing" textLength="98" x="598" y="430.2954">extrahieren</text><polygon fill="#000000" points="1080,479.0938,1090,483.0938,1080,487.0938,1084,483.0938" style="stroke:#000000;stroke-width:1.0;"/><line style="stroke:#000000;stroke-width:1.0;" x1="591" x2="1086" y1="483.0938" y2="483.0938"/><text fill="#000000" font-family="sans-serif" font-size="17" lengthAdjust="spacing" textLength="146" x="598" y="477.0845">readAttachement</text><line style="stroke:#000000;stroke-width:1.0;" x1="1102" x2="1144" y1="516.8828" y2="516.8828"/><line style="stroke:#000000;stroke-width:1.0;" x1="1144" x2="1144" y1="516.8828" y2="529.8828"/><line style="stroke:#000000;stroke-width:1.0;" x1="1103" x2="1144" y1="529.8828" y2="529.8828"/><polygon fill="#000000" points="1113,525.8828,1103,529.8828,1113,533.8828,1109,529.8828" style="stroke:#000000;stroke-width:1.0;"/><text fill="#000000" font-family="sans-serif" font-size="17" lengthAdjust="spacing" textLength="172" x="1109" y="510.8735">Berechtigung pr&#252;fen</text><line style="stroke:#000000;stroke-width:1.0;" x1="1102" x2="1144" y1="563.6719" y2="563.6719"/><line style="stroke:#000000;stroke-width:1.0;" x1="1144" x2="1144" y1="563.6719" y2="576.6719"/><line style="stroke:#000000;stroke-width:1.0;" x1="1103" x2="1144" y1="576.6719" y2="576.6719"/><polygon fill="#000000" points="1113,572.6719,1103,576.6719,1113,580.6719,1109,576.6719" style="stroke:#000000;stroke-width:1.0;"/><text fill="#000000" font-family="sans-serif" font-size="17" lengthAdjust="spacing" textLength="278" x="1109" y="557.6626">verschl&#252;sselte Client-Mail suchen</text><polygon fill="#000000" points="602,606.4609,592,610.4609,602,614.4609,598,610.4609" style="stroke:#000000;stroke-width:1.0;"/><line style="stroke:#000000;stroke-width:1.0;stroke-dasharray:2.0,2.0;" x1="596" x2="1096" y1="610.4609" y2="610.4609"/><text fill="#000000" font-family="sans-serif" font-size="17" lengthAdjust="spacing" textLength="214" x="876" y="604.4517">verschl&#252;sselte Client-Mail</text><line style="stroke:#000000;stroke-width:1.0;" x1="591" x2="633" y1="683.8281" y2="683.8281"/><line style="stroke:#000000;stroke-width:1.0;" x1="633" x2="633" y1="683.8281" y2="696.8281"/><line style="stroke:#000000;stroke-width:1.0;" x1="592" x2="633" y1="696.8281" y2="696.8281"/><polygon fill="#000000" points="602,692.8281,592,696.8281,602,700.8281,598,696.8281" style="stroke:#000000;stroke-width:1.0;"/><text fill="#000000" font-family="sans-serif" font-size="17" lengthAdjust="spacing" textLength="167" x="598" y="638.2407">Client-Mail mit dem</text><text fill="#000000" font-family="sans-serif" font-size="17" lengthAdjust="spacing" textLength="211" x="598" y="658.0298">symmetrischen Schl&#252;ssel</text><text fill="#000000" font-family="sans-serif" font-size="17" lengthAdjust="spacing" textLength="113" x="598" y="677.8188">entschl&#252;sseln</text><line style="stroke:#000000;stroke-width:1.0;" x1="591" x2="633" y1="730.6172" y2="730.6172"/><line style="stroke:#000000;stroke-width:1.0;" x1="633" x2="633" y1="730.6172" y2="743.6172"/><line style="stroke:#000000;stroke-width:1.0;" x1="592" x2="633" y1="743.6172" y2="743.6172"/><polygon fill="#000000" points="602,739.6172,592,743.6172,602,747.6172,598,743.6172" style="stroke:#000000;stroke-width:1.0;"/><text fill="#000000" font-family="sans-serif" font-size="17" lengthAdjust="spacing" textLength="201" x="598" y="724.6079">Bildung des Hashwertes</text><line style="stroke:#000000;stroke-width:1.0;" x1="591" x2="633" y1="777.4063" y2="777.4063"/><line style="stroke:#000000;stroke-width:1.0;" x1="633" x2="633" y1="777.4063" y2="790.4063"/><line style="stroke:#000000;stroke-width:1.0;" x1="592" x2="633" y1="790.4063" y2="790.4063"/><polygon fill="#000000" points="602,786.4063,592,790.4063,602,794.4063,598,790.4063" style="stroke:#000000;stroke-width:1.0;"/><text fill="#000000" font-family="sans-serif" font-size="17" lengthAdjust="spacing" textLength="205" x="598" y="771.397">Vergleich der Hashwerte</text><line style="stroke:#000000;stroke-width:1.0;" x1="591" x2="633" y1="824.1953" y2="824.1953"/><line style="stroke:#000000;stroke-width:1.0;" x1="633" x2="633" y1="824.1953" y2="837.1953"/><line style="stroke:#000000;stroke-width:1.0;" x1="592" x2="633" y1="837.1953" y2="837.1953"/><polygon fill="#000000" points="602,833.1953,592,837.1953,602,841.1953,598,837.1953" style="stroke:#000000;stroke-width:1.0;"/><text fill="#000000" font-family="sans-serif" font-size="17" lengthAdjust="spacing" textLength="193" x="598" y="818.186">Client-Mail aufbereiten</text><polygon fill="#000000" points="348,873.9844,338,877.9844,348,881.9844,344,877.9844" style="stroke:#000000;stroke-width:1.0;"/><line style="stroke:#000000;stroke-width:1.0;stroke-dasharray:2.0,2.0;" x1="342" x2="580" y1="877.9844" y2="877.9844"/><text fill="#000000" font-family="sans-serif" font-size="17" lengthAdjust="spacing" textLength="91" x="483" y="871.9751">Client-Mail</text><polygon fill="#000000" points="113.5,907.7734,103.5,911.7734,113.5,915.7734,109.5,911.7734" style="stroke:#000000;stroke-width:1.0;"/><line style="stroke:#000000;stroke-width:1.0;stroke-dasharray:2.0,2.0;" x1="107.5" x2="331" y1="911.7734" y2="911.7734"/><text fill="#000000" font-family="sans-serif" font-size="17" lengthAdjust="spacing" textLength="91" x="234" y="905.7642">Client-Mail</text><!--SRC=[ZLHDJzj04BtlhnZ1WGDo-L1HKLH5Sg2KA35ODO8BbuqziLUnTzFTDOHM_JVz6TpuOvrTEub90sqa93FpvhstipDxiCTsOJICuEZ32Ns5QQfgQI7YakUeAPBWznfbYd0kUAvvHQ4hNc4FhkUekHLAmemRgBWe0QlvbCiS9TixO8oPcP1pJZLWMf88ZI7Ui1IvX4neJ1r11rW9ULPoO-v4PWiuFZpiv0Pg4VCi4pA7evCjvDzmYjfzN2BFK0zuEiirdIOxKwNICESbvXh9d4dfanmlIE3ZAJmwBLQ8366gb9senJRhy9E5Mgl7XcnI4diJk53I9k87mj4d5gPMwO7I9D_5ZSKKnqBYEvaDir-va6QYj68ivjgALCovjDtwI5dnuFl_2h71insridnyk1dkcdj3UV1NSbFq-cPu6zuChwzOsv4tJ-VJcxghuDBZAk0c3q8-nmNxnS3_kCl166W6TyOeZArbRb1FDCq9wfqMHPSAdmtHzOvE-x4MrSjlRPwCnUfUmkvT8ImcbPfX2sz-y_KH8VO2yMroC1ec1n5DUreAb7OfW39p8jlapZomKbbTRXNhoemYhqCB6PnJbVaV_WkU5fa7_vC-REZRBG_QBT_PPgJn4IRRab7YiwuBrEg7DSFI9Hi7_RW73W1yekifRPsxAJUB2363EEYFeZS1euZHNz2Faltz7j0hWU81eNqy6Ca7hZm8UZ2wZeBnby3nD2MEjVcVp5YJ5kNBip5OIg3fe_uazF9mMzDpe5-UlUgoAcu2G7Fk7iJW5hLnUmDgRdqWj9OwNH5jS4ukgT-wdZcg1wKBBhCk6JKk6CgfqfLVFgBbjN7Kz_8zgdk92wjv8Tn3rhAv1l2igK1NqcqKOJnaG0LfOKLEqzyvci_H_QpxG4NDF3OzCZMHUcJZ-nqi8_klXDkZTkagOGb5EsMUgWgj5iRHGxAYf0E-kfKrpK2KcJEVeO5BRef7r1RDEa_NaPSeqi9Vq0gntGUlfnFg26q2AT1GUfGVoNSE51DY_3OY_WC0]--></g></svg>