<?xml version="1.0" encoding="us-ascii" standalone="no"?><svg xmlns="http://www.w3.org/2000/svg" xmlns:xlink="http://www.w3.org/1999/xlink" contentStyleType="text/css" height="1117px" preserveAspectRatio="none" style="width:1483px;height:1117px;background:#FFFFFF;" version="1.1" viewBox="0 0 1483 1117" width="1483px" zoomAndPan="magnify"><defs/><g><rect fill="#F5F5F5" height="1098.7188" style="stroke:#181818;stroke-width:0.5;" width="222" x="226" y="6"/><text fill="#000000" font-family="sans-serif" font-size="18" font-weight="bold" lengthAdjust="spacing" textLength="145" x="264.5" y="22.708">Prim&#228;rsystem</text><text fill="#000000" font-family="sans-serif" font-size="13" font-weight="bold" lengthAdjust="spacing" textLength="5" x="264.5" y="39.02">&#160;</text><rect fill="#F5F5F5" height="1098.7188" style="stroke:#181818;stroke-width:0.5;" width="222" x="480" y="6"/><text fill="#000000" font-family="sans-serif" font-size="18" font-weight="bold" lengthAdjust="spacing" textLength="126" x="528" y="22.708">Clientmodul</text><text fill="#000000" font-family="sans-serif" font-size="13" font-weight="bold" lengthAdjust="spacing" textLength="5" x="528" y="39.02">&#160;</text><rect fill="#F5F5F5" height="1098.7188" style="stroke:#181818;stroke-width:0.5;" width="670" x="807" y="6"/><text fill="#000000" font-family="sans-serif" font-size="18" font-weight="bold" lengthAdjust="spacing" textLength="115" x="1084.5" y="22.708">Fachdienst</text><text fill="#000000" font-family="sans-serif" font-size="13" font-weight="bold" lengthAdjust="spacing" textLength="5" x="1084.5" y="39.02">&#160;</text><rect fill="#DCDCDC" height="948.8594" style="stroke:#000000;stroke-width:1.0;" width="10" x="332" y="143.8594"/><rect fill="#DCDCDC" height="881.2813" style="stroke:#000000;stroke-width:1.0;" width="10" x="586" y="177.6484"/><rect fill="#DCDCDC" height="33.7891" style="stroke:#000000;stroke-width:1.0;" width="10" x="913" y="348.9375"/><rect fill="#DCDCDC" height="220.9453" style="stroke:#000000;stroke-width:1.0;" width="10" x="1137" y="596.4609"/><rect fill="#DCDCDC" height="33.7891" style="stroke:#000000;stroke-width:1.0;" width="10" x="1361" y="991.3516"/><rect fill="none" height="585.9688" style="stroke:#000000;stroke-width:1.5;" width="890" x="474" y="306.0156"/><line style="stroke:#000000;stroke-width:0.5;stroke-dasharray:5.0,5.0;" x1="105" x2="105" y1="88.2813" y2="1110.7188"/><line style="stroke:#000000;stroke-width:0.5;stroke-dasharray:5.0,5.0;" x1="337" x2="337" y1="88.2813" y2="1110.7188"/><line style="stroke:#000000;stroke-width:0.5;stroke-dasharray:5.0,5.0;" x1="591" x2="591" y1="88.2813" y2="1110.7188"/><line style="stroke:#000000;stroke-width:0.5;stroke-dasharray:5.0,5.0;" x1="918" x2="918" y1="88.2813" y2="1110.7188"/><line style="stroke:#000000;stroke-width:0.5;stroke-dasharray:5.0,5.0;" x1="1142" x2="1142" y1="88.2813" y2="1110.7188"/><line style="stroke:#000000;stroke-width:0.5;stroke-dasharray:5.0,5.0;" x1="1366" x2="1366" y1="88.2813" y2="1110.7188"/><text fill="#000000" font-family="Aapex" font-size="20" lengthAdjust="spacing" textLength="194" x="5" y="83.5645">Leistungserbringer</text><ellipse cx="105" cy="13.5" fill="#DCDCDC" rx="8" ry="8" style="stroke:#000000;stroke-width:0.5;"/><path d="M105,21.5 L105,48.5 M92,29.5 L118,29.5 M105,48.5 L92,63.5 M105,48.5 L118,63.5 " fill="none" style="stroke:#000000;stroke-width:0.5;"/><rect fill="#EFEFFF" height="37.2813" rx="2.5" ry="2.5" style="stroke:#000000;stroke-width:0.5;" width="214" x="230" y="50"/><text fill="#000000" font-family="sans-serif" font-size="20" lengthAdjust="spacing" textLength="181" x="246.5" y="75.5645">PVS/KIS/Mailclient</text><rect fill="#EFEFFF" height="37.2813" rx="2.5" ry="2.5" style="stroke:#000000;stroke-width:0.5;" width="214" x="484" y="50"/><text fill="#000000" font-family="sans-serif" font-size="20" lengthAdjust="spacing" textLength="108" x="537" y="75.5645">KIM-Dienst</text><rect fill="#EFEFFF" height="37.2813" rx="2.5" ry="2.5" style="stroke:#000000;stroke-width:0.5;" width="214" x="811" y="50"/><text fill="#000000" font-family="sans-serif" font-size="20" lengthAdjust="spacing" textLength="178" x="829" y="75.5645">Account-Manager</text><rect fill="#EFEFFF" height="37.2813" rx="2.5" ry="2.5" style="stroke:#000000;stroke-width:0.5;" width="214" x="1035" y="50"/><text fill="#000000" font-family="sans-serif" font-size="20" lengthAdjust="spacing" textLength="39" x="1122.5" y="75.5645">KAS</text><rect fill="#EFEFFF" height="37.2813" rx="2.5" ry="2.5" style="stroke:#000000;stroke-width:0.5;" width="214" x="1259" y="50"/><text fill="#000000" font-family="sans-serif" font-size="20" lengthAdjust="spacing" textLength="105" x="1313.5" y="75.5645">Mailserver</text><rect fill="#DCDCDC" height="948.8594" style="stroke:#000000;stroke-width:1.0;" width="10" x="332" y="143.8594"/><rect fill="#DCDCDC" height="881.2813" style="stroke:#000000;stroke-width:1.0;" width="10" x="586" y="177.6484"/><rect fill="#DCDCDC" height="33.7891" style="stroke:#000000;stroke-width:1.0;" width="10" x="913" y="348.9375"/><rect fill="#DCDCDC" height="220.9453" style="stroke:#000000;stroke-width:1.0;" width="10" x="1137" y="596.4609"/><rect fill="#DCDCDC" height="33.7891" style="stroke:#000000;stroke-width:1.0;" width="10" x="1361" y="991.3516"/><polygon fill="#000000" points="320,139.8594,330,143.8594,320,147.8594,324,143.8594" style="stroke:#000000;stroke-width:1.0;"/><line style="stroke:#000000;stroke-width:1.0;" x1="105" x2="326" y1="143.8594" y2="143.8594"/><text fill="#000000" font-family="sans-serif" font-size="17" lengthAdjust="spacing" textLength="152" x="112" y="118.061">Email mit gro&#223;en</text><text fill="#000000" font-family="sans-serif" font-size="17" lengthAdjust="spacing" textLength="177" x="117" y="137.8501">Anh&#228;ngen erzeugen</text><polygon fill="#000000" points="574,173.6484,584,177.6484,574,181.6484,578,177.6484" style="stroke:#000000;stroke-width:1.0;"/><line style="stroke:#000000;stroke-width:1.0;" x1="342" x2="580" y1="177.6484" y2="177.6484"/><text fill="#000000" font-family="sans-serif" font-size="17" lengthAdjust="spacing" textLength="166" x="349" y="171.6392">E-Mail weiterleiten</text><line style="stroke:#000000;stroke-width:1.0;" x1="596" x2="638" y1="211.4375" y2="211.4375"/><line style="stroke:#000000;stroke-width:1.0;" x1="638" x2="638" y1="211.4375" y2="224.4375"/><line style="stroke:#000000;stroke-width:1.0;" x1="597" x2="638" y1="224.4375" y2="224.4375"/><polygon fill="#000000" points="607,220.4375,597,224.4375,607,228.4375,603,224.4375" style="stroke:#000000;stroke-width:1.0;"/><text fill="#000000" font-family="sans-serif" font-size="17" lengthAdjust="spacing" textLength="204" x="603" y="205.4282">Pr&#252;fen der E-Mailgr&#246;&#223;e</text><line style="stroke:#000000;stroke-width:1.0;" x1="596" x2="638" y1="278.0156" y2="278.0156"/><line style="stroke:#000000;stroke-width:1.0;" x1="638" x2="638" y1="278.0156" y2="291.0156"/><line style="stroke:#000000;stroke-width:1.0;" x1="597" x2="638" y1="291.0156" y2="291.0156"/><polygon fill="#000000" points="607,287.0156,597,291.0156,607,295.0156,603,291.0156" style="stroke:#000000;stroke-width:1.0;"/><text fill="#000000" font-family="sans-serif" font-size="17" lengthAdjust="spacing" textLength="203" x="603" y="252.2173">Pr&#252;fen der KIM-Version</text><text fill="#000000" font-family="sans-serif" font-size="17" lengthAdjust="spacing" textLength="144" x="608" y="272.0063">des Empf&#228;ngers</text><path d="M474,306.0156 L546,306.0156 L546,313.1484 L536,323.1484 L474,323.1484 L474,306.0156 " fill="#EEEEEE" style="stroke:#000000;stroke-width:1.5;"/><rect fill="none" height="585.9688" style="stroke:#000000;stroke-width:1.5;" width="890" x="474" y="306.0156"/><text fill="#000000" font-family="sans-serif" font-size="13" font-weight="bold" lengthAdjust="spacing" textLength="27" x="489" y="319.0825">opt</text><text fill="#000000" font-family="sans-serif" font-size="11" font-weight="bold" lengthAdjust="spacing" textLength="134" x="561" y="318.2261">[Mailgr&#246;&#223;e&gt;=15 MB]</text><polygon fill="#000000" points="901,344.9375,911,348.9375,901,352.9375,905,348.9375" style="stroke:#000000;stroke-width:1.0;"/><line style="stroke:#000000;stroke-width:1.0;" x1="596" x2="907" y1="348.9375" y2="348.9375"/><text fill="#000000" font-family="sans-serif" font-size="17" lengthAdjust="spacing" textLength="84" x="603" y="342.9282">getLimits</text><polygon fill="#000000" points="607,378.7266,597,382.7266,607,386.7266,603,382.7266" style="stroke:#000000;stroke-width:1.0;"/><line style="stroke:#000000;stroke-width:1.0;stroke-dasharray:2.0,2.0;" x1="601" x2="917" y1="382.7266" y2="382.7266"/><text fill="#000000" font-family="sans-serif" font-size="17" lengthAdjust="spacing" textLength="54" x="857" y="376.7173">Limits</text><line style="stroke:#000000;stroke-width:1.0;" x1="596" x2="638" y1="436.3047" y2="436.3047"/><line style="stroke:#000000;stroke-width:1.0;" x1="638" x2="638" y1="436.3047" y2="449.3047"/><line style="stroke:#000000;stroke-width:1.0;" x1="597" x2="638" y1="449.3047" y2="449.3047"/><polygon fill="#000000" points="607,445.3047,597,449.3047,607,453.3047,603,449.3047" style="stroke:#000000;stroke-width:1.0;"/><text fill="#000000" font-family="sans-serif" font-size="17" lengthAdjust="spacing" textLength="288" x="603" y="410.5063">Erzeugung eines symmetrischen</text><text fill="#000000" font-family="sans-serif" font-size="17" lengthAdjust="spacing" textLength="195" x="608" y="430.2954">Schl&#252;ssels f&#252;r die Mail</text><line style="stroke:#000000;stroke-width:1.0;" x1="596" x2="638" y1="483.0938" y2="483.0938"/><line style="stroke:#000000;stroke-width:1.0;" x1="638" x2="638" y1="483.0938" y2="496.0938"/><line style="stroke:#000000;stroke-width:1.0;" x1="597" x2="638" y1="496.0938" y2="496.0938"/><polygon fill="#000000" points="607,492.0938,597,496.0938,607,500.0938,603,496.0938" style="stroke:#000000;stroke-width:1.0;"/><text fill="#000000" font-family="sans-serif" font-size="17" lengthAdjust="spacing" textLength="212" x="603" y="477.0845">Bildung des Hashwertes</text><line style="stroke:#000000;stroke-width:1.0;" x1="596" x2="638" y1="549.6719" y2="549.6719"/><line style="stroke:#000000;stroke-width:1.0;" x1="638" x2="638" y1="549.6719" y2="562.6719"/><line style="stroke:#000000;stroke-width:1.0;" x1="597" x2="638" y1="562.6719" y2="562.6719"/><polygon fill="#000000" points="607,558.6719,597,562.6719,607,566.6719,603,562.6719" style="stroke:#000000;stroke-width:1.0;"/><text fill="#000000" font-family="sans-serif" font-size="17" lengthAdjust="spacing" textLength="220" x="603" y="523.8735">Verschl&#252;sselung der Mail</text><text fill="#000000" font-family="sans-serif" font-size="17" lengthAdjust="spacing" textLength="303" x="603" y="543.6626">mit dem symmetrischen Schl&#252;ssel</text><polygon fill="#000000" points="1125,592.4609,1135,596.4609,1125,600.4609,1129,596.4609" style="stroke:#000000;stroke-width:1.0;"/><line style="stroke:#000000;stroke-width:1.0;" x1="596" x2="1131" y1="596.4609" y2="596.4609"/><text fill="#000000" font-family="sans-serif" font-size="17" lengthAdjust="spacing" textLength="140" x="603" y="590.4517">addAttachment</text><line style="stroke:#000000;stroke-width:1.0;" x1="1147" x2="1189" y1="630.25" y2="630.25"/><line style="stroke:#000000;stroke-width:1.0;" x1="1189" x2="1189" y1="630.25" y2="643.25"/><line style="stroke:#000000;stroke-width:1.0;" x1="1148" x2="1189" y1="643.25" y2="643.25"/><polygon fill="#000000" points="1158,639.25,1148,643.25,1158,647.25,1154,643.25" style="stroke:#000000;stroke-width:1.0;"/><text fill="#000000" font-family="sans-serif" font-size="17" lengthAdjust="spacing" textLength="185" x="1154" y="624.2407">Berechtigung pr&#252;fen</text><line style="stroke:#000000;stroke-width:1.0;" x1="1147" x2="1189" y1="677.0391" y2="677.0391"/><line style="stroke:#000000;stroke-width:1.0;" x1="1189" x2="1189" y1="677.0391" y2="690.0391"/><line style="stroke:#000000;stroke-width:1.0;" x1="1148" x2="1189" y1="690.0391" y2="690.0391"/><polygon fill="#000000" points="1158,686.0391,1148,690.0391,1158,694.0391,1154,690.0391" style="stroke:#000000;stroke-width:1.0;"/><text fill="#000000" font-family="sans-serif" font-size="17" lengthAdjust="spacing" textLength="166" x="1154" y="671.0298">Dateigr&#246;&#223;e pr&#252;fen</text><line style="stroke:#000000;stroke-width:1.0;" x1="1147" x2="1189" y1="723.8281" y2="723.8281"/><line style="stroke:#000000;stroke-width:1.0;" x1="1189" x2="1189" y1="723.8281" y2="736.8281"/><line style="stroke:#000000;stroke-width:1.0;" x1="1148" x2="1189" y1="736.8281" y2="736.8281"/><polygon fill="#000000" points="1158,732.8281,1148,736.8281,1158,740.8281,1154,736.8281" style="stroke:#000000;stroke-width:1.0;"/><text fill="#000000" font-family="sans-serif" font-size="17" lengthAdjust="spacing" textLength="198" x="1154" y="717.8188">Freigabelink erzeugen</text><line style="stroke:#000000;stroke-width:1.0;" x1="1147" x2="1189" y1="770.6172" y2="770.6172"/><line style="stroke:#000000;stroke-width:1.0;" x1="1189" x2="1189" y1="770.6172" y2="783.6172"/><line style="stroke:#000000;stroke-width:1.0;" x1="1148" x2="1189" y1="783.6172" y2="783.6172"/><polygon fill="#000000" points="1158,779.6172,1148,783.6172,1158,787.6172,1154,783.6172" style="stroke:#000000;stroke-width:1.0;"/><text fill="#000000" font-family="sans-serif" font-size="17" lengthAdjust="spacing" textLength="190" x="1154" y="764.6079">E-Mail Daten ablegen</text><polygon fill="#000000" points="607,813.4063,597,817.4063,607,821.4063,603,817.4063" style="stroke:#000000;stroke-width:1.0;"/><line style="stroke:#000000;stroke-width:1.0;stroke-dasharray:2.0,2.0;" x1="601" x2="1141" y1="817.4063" y2="817.4063"/><text fill="#000000" font-family="sans-serif" font-size="17" lengthAdjust="spacing" textLength="110" x="1025" y="811.397">Freigabelink</text><line style="stroke:#000000;stroke-width:1.0;" x1="596" x2="638" y1="870.9844" y2="870.9844"/><line style="stroke:#000000;stroke-width:1.0;" x1="638" x2="638" y1="870.9844" y2="883.9844"/><line style="stroke:#000000;stroke-width:1.0;" x1="597" x2="638" y1="883.9844" y2="883.9844"/><polygon fill="#000000" points="607,879.9844,597,883.9844,607,887.9844,603,883.9844" style="stroke:#000000;stroke-width:1.0;"/><text fill="#000000" font-family="sans-serif" font-size="17" lengthAdjust="spacing" textLength="278" x="603" y="845.186">KIM-Attachment-Datenstruktur</text><text fill="#000000" font-family="sans-serif" font-size="17" lengthAdjust="spacing" textLength="303" x="603" y="864.9751">im Body der KOM-LE-Mail einf&#252;gen</text><line style="stroke:#000000;stroke-width:1.0;" x1="596" x2="638" y1="944.5625" y2="944.5625"/><line style="stroke:#000000;stroke-width:1.0;" x1="638" x2="638" y1="944.5625" y2="957.5625"/><line style="stroke:#000000;stroke-width:1.0;" x1="597" x2="638" y1="957.5625" y2="957.5625"/><polygon fill="#000000" points="607,953.5625,597,957.5625,607,961.5625,603,957.5625" style="stroke:#000000;stroke-width:1.0;"/><text fill="#000000" font-family="sans-serif" font-size="17" lengthAdjust="spacing" textLength="196" x="603" y="918.7642">KOM-LE-Mail signieren</text><text fill="#000000" font-family="sans-serif" font-size="17" lengthAdjust="spacing" textLength="289" x="603" y="938.5532">und asymmetrisch verschl&#252;sseln</text><polygon fill="#000000" points="1349,987.3516,1359,991.3516,1349,995.3516,1353,991.3516" style="stroke:#000000;stroke-width:1.0;"/><line style="stroke:#000000;stroke-width:1.0;" x1="596" x2="1355" y1="991.3516" y2="991.3516"/><text fill="#000000" font-family="sans-serif" font-size="17" lengthAdjust="spacing" textLength="124" x="603" y="985.3423">send Message</text><polygon fill="#000000" points="607,1021.1406,597,1025.1406,607,1029.1406,603,1025.1406" style="stroke:#000000;stroke-width:1.0;"/><line style="stroke:#000000;stroke-width:1.0;stroke-dasharray:2.0,2.0;" x1="601" x2="1365" y1="1025.1406" y2="1025.1406"/><text fill="#000000" font-family="sans-serif" font-size="17" lengthAdjust="spacing" textLength="56" x="1303" y="1019.1313">status</text><polygon fill="#000000" points="353,1054.9297,343,1058.9297,353,1062.9297,349,1058.9297" style="stroke:#000000;stroke-width:1.0;"/><line style="stroke:#000000;stroke-width:1.0;stroke-dasharray:2.0,2.0;" x1="347" x2="590" y1="1058.9297" y2="1058.9297"/><text fill="#000000" font-family="sans-serif" font-size="17" lengthAdjust="spacing" textLength="56" x="528" y="1052.9204">status</text><polygon fill="#000000" points="116,1088.7188,106,1092.7188,116,1096.7188,112,1092.7188" style="stroke:#000000;stroke-width:1.0;"/><line style="stroke:#000000;stroke-width:1.0;stroke-dasharray:2.0,2.0;" x1="110" x2="336" y1="1092.7188" y2="1092.7188"/><text fill="#000000" font-family="sans-serif" font-size="17" lengthAdjust="spacing" textLength="56" x="274" y="1086.7095">status</text><!--SRC=[ZLNDRjiu4BxpAGRfeOT2cxZOe8NH6f2JPXlOQeIgI2-vqD9O8YoHAaddfqMVfPS-mvvoyujrICgsubLtru0DcZFylc_-oEFdx1dCBXCO_N5AgpZFrLfQIBZa9MhQoV3B6cMES2vugNb3MnzuWsEuQb5pAvI45JVGS563GLcWPC-F6MDc9MJBwG3j1eG4ZI7Gk1QbX49epDtfdcCZv5dDZVai2bl1ovEJdcsgxbDU54AMC3eT0F-8IzHkyHvvWNhAyrMfAPJYJDLAGyjhB3MIE9FJakJU4y6Vh-7ESR5A50XBfUn2tGz9XsyirbhT1R15JUXXuq99cucl2ADNBCwjqbEbYRxlDnTBd0k9_s8v4FiN5z8ib5QCfLnRaOkMIzi_doWhRdtodtWSu0nxxII_F3dSxelx3VFq7yP3qgjFbzVnfykh3wpBo6-Zy-P3tjtcLkDkmxKTnBp5U_QTWVzmPuCvK0CUpL4OkvQbGRtGr2UeZpelAYgyCGGt7hsUf5eqcv_QF1YBpOs4PvyhOJ5hr0exz_1fzo52wWdIw-nuTfaT9zJgUIrGsYq1jRqZ6Q8xyuwDAjRr85cVPfPu7fh6w9nEcV-3Vy7pgl3E_maV1_XknADkn8-6X0GTSJPaJ39lTLcWLD_k4ROgsJoQf6Duvw-4HbYWwcz-e2I1iQmsFwaq4b1_nJKjcAkXwrA4b44QJMO97OqSEjmXHQDhzzltcoMCli4prPl79S5HVtQdIhtvczY6NLnghr4R6eaRjsD8PRlqahHXe5fty-qm9cz7fv1C0rHCK2NQkQ28J4zDJ6hY90fSMsk1J-nRAUzyqDIZW3Js1in3qw3LmkILJq-ML_NcqHYi3ImtZvfkIVI2zX1JKHSEm6b_pqrrXzgYsTjTT3kKuAWz1Dn8Lui2cwUqFT8EPGnqqSRMKcSrrBlzp9E7TvZINPjNLlXOsf3WhUsSF4MNmKFRXIOJNs0jvAhN0i7OLTsTby0NT647MmYiV_H9WcVxu5rvzy8ZZsIiNg_iMbFymZqZnKFeXAiacdUCL0pAjcUZ7kx1zNmCFLh2lJ24GrSPZS0-YN3RJxeC04dsuiNOluZGFNoCHiS74qLaiDokGztSj6p_zkDAt3n4a_cGCVq5]--></g></svg>