<?xml version="1.0" encoding="us-ascii" standalone="no"?><svg xmlns="http://www.w3.org/2000/svg" xmlns:xlink="http://www.w3.org/1999/xlink" contentStyleType="text/css" height="368px" preserveAspectRatio="none" style="width:747px;height:368px;background:#FFFFFF;" version="1.1" viewBox="0 0 747 368" width="747px" zoomAndPan="magnify"><defs/><g><rect fill="#F5F5F5" height="349.9375" style="stroke:#181818;stroke-width:0.5;" width="248" x="233" y="6"/><text fill="#000000" font-family="sans-serif" font-size="18" font-weight="bold" lengthAdjust="spacing" textLength="126" x="294" y="22.708">Clientmodul</text><text fill="#000000" font-family="sans-serif" font-size="13" font-weight="bold" lengthAdjust="spacing" textLength="5" x="294" y="39.02">&#160;</text><rect fill="#F5F5F5" height="349.9375" style="stroke:#181818;stroke-width:0.5;" width="222" x="513" y="6"/><text fill="#000000" font-family="sans-serif" font-size="18" font-weight="bold" lengthAdjust="spacing" textLength="115" x="566.5" y="22.708">Fachdienst</text><text fill="#000000" font-family="sans-serif" font-size="13" font-weight="bold" lengthAdjust="spacing" textLength="5" x="566.5" y="39.02">&#160;</text><rect fill="#DCDCDC" height="200.0781" style="stroke:#000000;stroke-width:1.0;" width="10" x="352" y="143.8594"/><rect fill="#DCDCDC" height="33.7891" style="stroke:#000000;stroke-width:1.0;" width="10" x="619" y="177.6484"/><rect fill="#DCDCDC" height="33.7891" style="stroke:#000000;stroke-width:1.0;" width="10" x="619" y="269.3594"/><rect fill="none" height="84.7109" style="stroke:#000000;stroke-width:1.5;" width="514" x="227" y="226.4375"/><line style="stroke:#000000;stroke-width:0.5;stroke-dasharray:5.0,5.0;" x1="105" x2="105" y1="88.2813" y2="361.9375"/><line style="stroke:#000000;stroke-width:0.5;stroke-dasharray:5.0,5.0;" x1="357" x2="357" y1="88.2813" y2="361.9375"/><line style="stroke:#000000;stroke-width:0.5;stroke-dasharray:5.0,5.0;" x1="624" x2="624" y1="88.2813" y2="361.9375"/><text fill="#000000" font-family="Aapex" font-size="20" lengthAdjust="spacing" textLength="194" x="5" y="83.5645">Leistungserbringer</text><ellipse cx="105" cy="13.5" fill="#DCDCDC" rx="8" ry="8" style="stroke:#000000;stroke-width:0.5;"/><path d="M105,21.5 L105,48.5 M92,29.5 L118,29.5 M105,48.5 L92,63.5 M105,48.5 L118,63.5 " fill="none" style="stroke:#000000;stroke-width:0.5;"/><rect fill="#EFEFFF" height="37.2813" rx="2.5" ry="2.5" style="stroke:#000000;stroke-width:0.5;" width="240" x="237" y="50"/><text fill="#000000" font-family="sans-serif" font-size="20" lengthAdjust="spacing" textLength="226" x="244" y="75.5645">Administrationsmodul</text><rect fill="#EFEFFF" height="37.2813" rx="2.5" ry="2.5" style="stroke:#000000;stroke-width:0.5;" width="214" x="517" y="50"/><text fill="#000000" font-family="sans-serif" font-size="20" lengthAdjust="spacing" textLength="178" x="535" y="75.5645">Account-Manager</text><rect fill="#DCDCDC" height="200.0781" style="stroke:#000000;stroke-width:1.0;" width="10" x="352" y="143.8594"/><rect fill="#DCDCDC" height="33.7891" style="stroke:#000000;stroke-width:1.0;" width="10" x="619" y="177.6484"/><rect fill="#DCDCDC" height="33.7891" style="stroke:#000000;stroke-width:1.0;" width="10" x="619" y="269.3594"/><polygon fill="#000000" points="340,139.8594,350,143.8594,340,147.8594,344,143.8594" style="stroke:#000000;stroke-width:1.0;"/><line style="stroke:#000000;stroke-width:1.0;" x1="105" x2="346" y1="143.8594" y2="143.8594"/><text fill="#000000" font-family="sans-serif" font-size="17" lengthAdjust="spacing" textLength="223" x="112" y="118.061">Anwendungskennzeichen</text><text fill="#000000" font-family="sans-serif" font-size="17" lengthAdjust="spacing" textLength="120" x="112" y="137.8501">konfigurieren</text><polygon fill="#000000" points="607,173.6484,617,177.6484,607,181.6484,611,177.6484" style="stroke:#000000;stroke-width:1.0;"/><line style="stroke:#000000;stroke-width:1.0;" x1="362" x2="613" y1="177.6484" y2="177.6484"/><text fill="#000000" font-family="sans-serif" font-size="17" lengthAdjust="spacing" textLength="103" x="369" y="171.6392">getAccount</text><polygon fill="#000000" points="373,207.4375,363,211.4375,373,215.4375,369,211.4375" style="stroke:#000000;stroke-width:1.0;"/><line style="stroke:#000000;stroke-width:1.0;stroke-dasharray:2.0,2.0;" x1="367" x2="623" y1="211.4375" y2="211.4375"/><text fill="#000000" font-family="sans-serif" font-size="17" lengthAdjust="spacing" textLength="121" x="496" y="205.4282">Konfiguration</text><path d="M227,226.4375 L299,226.4375 L299,233.5703 L289,243.5703 L227,243.5703 L227,226.4375 " fill="#EEEEEE" style="stroke:#000000;stroke-width:1.5;"/><rect fill="none" height="84.7109" style="stroke:#000000;stroke-width:1.5;" width="514" x="227" y="226.4375"/><text fill="#000000" font-family="sans-serif" font-size="13" font-weight="bold" lengthAdjust="spacing" textLength="27" x="242" y="239.5044">opt</text><text fill="#000000" font-family="sans-serif" font-size="11" font-weight="bold" lengthAdjust="spacing" textLength="250" x="314" y="238.6479">[Anwendungskennzeichen bearbeiten]</text><polygon fill="#000000" points="607,265.3594,617,269.3594,607,273.3594,611,269.3594" style="stroke:#000000;stroke-width:1.0;"/><line style="stroke:#000000;stroke-width:1.0;" x1="362" x2="613" y1="269.3594" y2="269.3594"/><text fill="#000000" font-family="sans-serif" font-size="17" lengthAdjust="spacing" textLength="101" x="369" y="263.3501">setAccount</text><polygon fill="#000000" points="373,299.1484,363,303.1484,373,307.1484,369,303.1484" style="stroke:#000000;stroke-width:1.0;"/><line style="stroke:#000000;stroke-width:1.0;stroke-dasharray:2.0,2.0;" x1="367" x2="623" y1="303.1484" y2="303.1484"/><text fill="#000000" font-family="sans-serif" font-size="17" lengthAdjust="spacing" textLength="56" x="561" y="297.1392">status</text><polygon fill="#000000" points="116,339.9375,106,343.9375,116,347.9375,112,343.9375" style="stroke:#000000;stroke-width:1.0;"/><line style="stroke:#000000;stroke-width:1.0;stroke-dasharray:2.0,2.0;" x1="110" x2="356" y1="343.9375" y2="343.9375"/><text fill="#000000" font-family="sans-serif" font-size="17" lengthAdjust="spacing" textLength="56" x="294" y="337.9282">status</text><!--SRC=[XPJVRzem4CVV_LUSseS-iKArQXMQa09JDzIaLADQN_hYn4TYaPmpsnc8gV_xx2JGaC6M9-j-V3ztvtEkhzWbFCmZ67suTQSWILH55Y9EF4NjB4lyMI4b25yaJpKldEcH5pY6HOcQMwa8WdY31Yb3QGqfAtViwfenPjQIIkvImBGQ4HhZP8DSfWH2QanyVYUma3JBkJ4lKjWCReR3Zc-gjazS24afZ6vFY7_75Mf_-8PSe9xoP9rgruoOgLnfA7cEgKPqkCGTeU1R1_Xu1nlFOfaK22kbRAosfqg7topGMcqQiJXtwetXNf5ToXt2w1CB4glqL6c7xyQ5SeMX9Fo7frViLox9n4ehnfwujZAH9IVRpO_Sd7_Lup-AwEcSZZgKV3Ficxl5dI5F_tBseOld-O_WURvuPEr4pdPNk_lSWt5Vuy7W5my2NkAMlJ6eF-vz408tS16YDBQYrA2EjTiJr1TjbBjK-6oSt7XqDvdb4iaMIbJvAy7bIoOjBWkrnZQuV6yDWbeu46undNQpxwPEtKiZ2Iz_2dJFaqmubh7_vqGDg7b-W_RvzHai74o2CGIqSHRVw1g9TYYJ30bUQQre9TDAI_yEc1-DltmtCGQ1Iup6aA9j4Lrtn3n_C9Y04tzeHPgj0O7TE0Qgj6VuCN8Tkr-0H-zvfiCx1dQ8nd9R6MSwPjLj-ye7a_0zg1lp1m00]--></g></svg>