<?xml version="1.0" encoding="us-ascii" standalone="no"?><svg xmlns="http://www.w3.org/2000/svg" xmlns:xlink="http://www.w3.org/1999/xlink" contentStyleType="text/css" height="368px" preserveAspectRatio="none" style="width:733px;height:368px;background:#FFFFFF;" version="1.1" viewBox="0 0 733 368" width="733px" zoomAndPan="magnify"><defs/><g><rect fill="#F5F5F5" height="349.9375" style="stroke:#181818;stroke-width:0.5;" width="245" x="222" y="6"/><text fill="#000000" font-family="sans-serif" font-size="18" font-weight="bold" lengthAdjust="spacing" textLength="121" x="284" y="22.708">Clientmodul</text><text fill="#000000" font-family="sans-serif" font-size="13" font-weight="bold" lengthAdjust="spacing" textLength="5" x="284" y="39.02">&#160;</text><rect fill="#F5F5F5" height="349.9375" style="stroke:#181818;stroke-width:0.5;" width="222" x="499" y="6"/><text fill="#000000" font-family="sans-serif" font-size="18" font-weight="bold" lengthAdjust="spacing" textLength="112" x="554" y="22.708">Fachdienst</text><text fill="#000000" font-family="sans-serif" font-size="13" font-weight="bold" lengthAdjust="spacing" textLength="5" x="554" y="39.02">&#160;</text><rect fill="#DCDCDC" height="200.0781" style="stroke:#000000;stroke-width:1.0;" width="10" x="339.5" y="143.8594"/><rect fill="#DCDCDC" height="33.7891" style="stroke:#000000;stroke-width:1.0;" width="10" x="605" y="177.6484"/><rect fill="#DCDCDC" height="33.7891" style="stroke:#000000;stroke-width:1.0;" width="10" x="605" y="269.3594"/><rect fill="none" height="84.7109" style="stroke:#000000;stroke-width:1.5;" width="511" x="216" y="226.4375"/><line style="stroke:#000000;stroke-width:0.5;stroke-dasharray:5.0,5.0;" x1="102" x2="102" y1="88.2813" y2="361.9375"/><line style="stroke:#000000;stroke-width:0.5;stroke-dasharray:5.0,5.0;" x1="344" x2="344" y1="88.2813" y2="361.9375"/><line style="stroke:#000000;stroke-width:0.5;stroke-dasharray:5.0,5.0;" x1="610" x2="610" y1="88.2813" y2="361.9375"/><text fill="#000000" font-family="Aapex" font-size="20" lengthAdjust="spacing" textLength="189" x="5" y="83.5645">Leistungserbringer</text><ellipse cx="102.5" cy="13.5" fill="#DCDCDC" rx="8" ry="8" style="stroke:#000000;stroke-width:0.5;"/><path d="M102.5,21.5 L102.5,48.5 M89.5,29.5 L115.5,29.5 M102.5,48.5 L89.5,63.5 M102.5,48.5 L115.5,63.5 " fill="none" style="stroke:#000000;stroke-width:0.5;"/><rect fill="#EFEFFF" height="37.2813" rx="2.5" ry="2.5" style="stroke:#000000;stroke-width:0.5;" width="237" x="226" y="50"/><text fill="#000000" font-family="sans-serif" font-size="20" lengthAdjust="spacing" textLength="223" x="233" y="75.5645">Administrationsmodul</text><rect fill="#EFEFFF" height="37.2813" rx="2.5" ry="2.5" style="stroke:#000000;stroke-width:0.5;" width="214" x="503" y="50"/><text fill="#000000" font-family="sans-serif" font-size="20" lengthAdjust="spacing" textLength="176" x="522" y="75.5645">Account-Manager</text><rect fill="#DCDCDC" height="200.0781" style="stroke:#000000;stroke-width:1.0;" width="10" x="339.5" y="143.8594"/><rect fill="#DCDCDC" height="33.7891" style="stroke:#000000;stroke-width:1.0;" width="10" x="605" y="177.6484"/><rect fill="#DCDCDC" height="33.7891" style="stroke:#000000;stroke-width:1.0;" width="10" x="605" y="269.3594"/><polygon fill="#000000" points="327.5,139.8594,337.5,143.8594,327.5,147.8594,331.5,143.8594" style="stroke:#000000;stroke-width:1.0;"/><line style="stroke:#000000;stroke-width:1.0;" x1="102.5" x2="333.5" y1="143.8594" y2="143.8594"/><text fill="#000000" font-family="sans-serif" font-size="17" lengthAdjust="spacing" textLength="213" x="109.5" y="118.061">Anwendungskennzeichen</text><text fill="#000000" font-family="sans-serif" font-size="17" lengthAdjust="spacing" textLength="113" x="109.5" y="137.8501">konfigurieren</text><polygon fill="#000000" points="593,173.6484,603,177.6484,593,181.6484,597,177.6484" style="stroke:#000000;stroke-width:1.0;"/><line style="stroke:#000000;stroke-width:1.0;" x1="349.5" x2="599" y1="177.6484" y2="177.6484"/><text fill="#000000" font-family="sans-serif" font-size="17" lengthAdjust="spacing" textLength="93" x="356.5" y="171.6392">getAccount</text><polygon fill="#000000" points="360.5,207.4375,350.5,211.4375,360.5,215.4375,356.5,211.4375" style="stroke:#000000;stroke-width:1.0;"/><line style="stroke:#000000;stroke-width:1.0;stroke-dasharray:2.0,2.0;" x1="354.5" x2="609" y1="211.4375" y2="211.4375"/><text fill="#000000" font-family="sans-serif" font-size="17" lengthAdjust="spacing" textLength="115" x="488" y="205.4282">Konfiguration</text><path d="M216,226.4375 L286,226.4375 L286,233.5703 L276,243.5703 L216,243.5703 L216,226.4375 " fill="#EEEEEE" style="stroke:#000000;stroke-width:1.5;"/><rect fill="none" height="84.7109" style="stroke:#000000;stroke-width:1.5;" width="511" x="216" y="226.4375"/><text fill="#000000" font-family="sans-serif" font-size="13" font-weight="bold" lengthAdjust="spacing" textLength="25" x="231" y="239.5044">opt</text><text fill="#000000" font-family="sans-serif" font-size="11" font-weight="bold" lengthAdjust="spacing" textLength="247" x="301" y="238.6479">[Anwendungskennzeichen bearbeiten]</text><polygon fill="#000000" points="593,265.3594,603,269.3594,593,273.3594,597,269.3594" style="stroke:#000000;stroke-width:1.0;"/><line style="stroke:#000000;stroke-width:1.0;" x1="349.5" x2="599" y1="269.3594" y2="269.3594"/><text fill="#000000" font-family="sans-serif" font-size="17" lengthAdjust="spacing" textLength="91" x="356.5" y="263.3501">setAccount</text><polygon fill="#000000" points="360.5,299.1484,350.5,303.1484,360.5,307.1484,356.5,303.1484" style="stroke:#000000;stroke-width:1.0;"/><line style="stroke:#000000;stroke-width:1.0;stroke-dasharray:2.0,2.0;" x1="354.5" x2="609" y1="303.1484" y2="303.1484"/><text fill="#000000" font-family="sans-serif" font-size="17" lengthAdjust="spacing" textLength="51" x="552" y="297.1392">status</text><polygon fill="#000000" points="113.5,339.9375,103.5,343.9375,113.5,347.9375,109.5,343.9375" style="stroke:#000000;stroke-width:1.0;"/><line style="stroke:#000000;stroke-width:1.0;stroke-dasharray:2.0,2.0;" x1="107.5" x2="343.5" y1="343.9375" y2="343.9375"/><text fill="#000000" font-family="sans-serif" font-size="17" lengthAdjust="spacing" textLength="51" x="286.5" y="337.9282">status</text><!--SRC=[XPDDRzim38Rl-XL4TmwG51jM14C09q2tOdPRhCLwwOMs68U8JNcIl0GTzjydEnzLlMJpII1VlWz9oMxDqg356XpzQ4aAoiWvB2cfk1JGRAdmR4Ivex1cMLJet1DhluBByJZApSts7hLcAM7o8OeVpB_Hacnt-4AeoSwnM9VMjA8NfZ8M6goej4G1LuGZrBWDWFTNiEbOQiMQO6cCpyrMdN27NognrcnsPdaLt7U1QoF-WLy89XzLKdXZvyO6VAnBUKaf2_qZCsZsCxAut5YZr3rQpmKtA3wkpupddzYlBrOCV4whZYrVZeVXkBapvFbVoI7qxl7cU_9uStUhzXivErsV7dAFmKEFny0jrWG9DhHLlnNq7tOvI04TNAJ4phTIEhAv3U-4xCLU5IuLFhbWDvrSpHOLa_ZQwBPw5dZtj69F3xLPqrxSl8u6IM-SwF0mWxVjL-dwqeCrYUxiJu6kiLZfm7B-_vni1ogAi2O_ob0mQl_0KEbebamXaKs8T8EkIUI5k5YHmBEiZIovR2rt_u7gLjDTVjYOWYGKPbCeoUyHSJfJ7Nyqca4m_xetsRqQq1Jh59Z6d-7dX3QdC6EeEl1Sn7iBZ8ZEeszT2BrbzMDtdOzcwQierlm1]--></g></svg>