<?xml version="1.0" encoding="UTF-8" standalone="no"?><svg xmlns="http://www.w3.org/2000/svg" xmlns:xlink="http://www.w3.org/1999/xlink" contentStyleType="text/css" height="380px" preserveAspectRatio="none" style="width:732px;height:380px;background:#FFFFFF;" version="1.1" viewBox="0 0 732 380" width="732px" zoomAndPan="magnify"><defs/><g><rect fill="#F5F5F5" height="361.2813" style="stroke:#181818;stroke-width:0.5;" width="245" x="221" y="6"/><text fill="#000000" font-family="sans-serif" font-size="18" font-weight="bold" lengthAdjust="spacing" textLength="121" x="283" y="22.708">Clientmodul</text><text fill="#000000" font-family="sans-serif" font-size="13" font-weight="bold" lengthAdjust="spacing" textLength="5" x="283" y="39.02"> </text><rect fill="#F5F5F5" height="361.2813" style="stroke:#181818;stroke-width:0.5;" width="222" x="498" y="6"/><text fill="#000000" font-family="sans-serif" font-size="18" font-weight="bold" lengthAdjust="spacing" textLength="112" x="553" y="22.708">Fachdienst</text><text fill="#000000" font-family="sans-serif" font-size="13" font-weight="bold" lengthAdjust="spacing" textLength="5" x="553" y="39.02"> </text><rect fill="#DCDCDC" height="231.2109" style="stroke:#000000;stroke-width:1.0;" width="10" x="338.5" y="124.0703"/><rect fill="#DCDCDC" height="33.7891" style="stroke:#000000;stroke-width:1.0;" width="10" x="604" y="181.9922"/><rect fill="#DCDCDC" height="33.7891" style="stroke:#000000;stroke-width:1.0;" width="10" x="604" y="280.7031"/><rect height="84.7109" style="stroke:#000000;stroke-width:1.5;fill:none;" width="511" x="215" y="139.0703"/><rect height="84.7109" style="stroke:#000000;stroke-width:1.5;fill:none;" width="511" x="215" y="237.7813"/><line style="stroke:#000000;stroke-width:0.5;fill:none;stroke-dasharray:5.0,5.0;" x1="102" x2="102" y1="88.2813" y2="373.2813"/><line style="stroke:#000000;stroke-width:0.5;fill:none;stroke-dasharray:5.0,5.0;" x1="343" x2="343" y1="88.2813" y2="373.2813"/><line style="stroke:#000000;stroke-width:0.5;fill:none;stroke-dasharray:5.0,5.0;" x1="609" x2="609" y1="88.2813" y2="373.2813"/><text fill="#000000" font-family="Aapex" font-size="20" lengthAdjust="spacing" textLength="189" x="5" y="83.5645">Leistungserbringer</text><ellipse cx="102.5" cy="13.5" fill="#DCDCDC" rx="8" ry="8" style="stroke:#000000;stroke-width:0.5;"/><path d="M102.5,21.5 L102.5,48.5 M89.5,29.5 L115.5,29.5 M102.5,48.5 L89.5,63.5 M102.5,48.5 L115.5,63.5 " fill="none" style="stroke:#000000;stroke-width:0.5;"/><rect fill="#EFEFFF" height="37.2813" rx="2.5" ry="2.5" style="stroke:#000000;stroke-width:0.5;" width="237" x="225" y="50"/><text fill="#000000" font-family="sans-serif" font-size="20" lengthAdjust="spacing" textLength="223" x="232" y="75.5645">Administrationsmodul</text><rect fill="#EFEFFF" height="37.2813" rx="2.5" ry="2.5" style="stroke:#000000;stroke-width:0.5;" width="214" x="502" y="50"/><text fill="#000000" font-family="sans-serif" font-size="20" lengthAdjust="spacing" textLength="176" x="521" y="75.5645">Account-Manager</text><rect fill="#DCDCDC" height="231.2109" style="stroke:#000000;stroke-width:1.0;" width="10" x="338.5" y="124.0703"/><rect fill="#DCDCDC" height="33.7891" style="stroke:#000000;stroke-width:1.0;" width="10" x="604" y="181.9922"/><rect fill="#DCDCDC" height="33.7891" style="stroke:#000000;stroke-width:1.0;" width="10" x="604" y="280.7031"/><polygon fill="#000000" points="326.5,120.0703,336.5,124.0703,326.5,128.0703,330.5,124.0703" style="stroke:#000000;stroke-width:1.0;"/><line style="stroke:#000000;stroke-width:1.0;" x1="102.5" x2="332.5" y1="124.0703" y2="124.0703"/><text fill="#000000" font-family="sans-serif" font-size="17" lengthAdjust="spacing" textLength="146" x="109.5" y="118.061">Kontoverwaltung</text><path d="M215,139.0703 L285,139.0703 L285,146.2031 L275,156.2031 L215,156.2031 L215,139.0703 " fill="#EEEEEE" style="stroke:#000000;stroke-width:1.5;"/><rect fill="none" height="84.7109" style="stroke:#000000;stroke-width:1.5;" width="511" x="215" y="139.0703"/><text fill="#000000" font-family="sans-serif" font-size="13" font-weight="bold" lengthAdjust="spacing" textLength="25" x="230" y="152.1372">opt</text><text fill="#000000" font-family="sans-serif" font-size="11" font-weight="bold" lengthAdjust="spacing" textLength="147" x="300" y="151.2808">[Kontodaten abfragen]</text><polygon fill="#000000" points="592,177.9922,602,181.9922,592,185.9922,596,181.9922" style="stroke:#000000;stroke-width:1.0;"/><line style="stroke:#000000;stroke-width:1.0;" x1="348.5" x2="598" y1="181.9922" y2="181.9922"/><text fill="#000000" font-family="sans-serif" font-size="17" lengthAdjust="spacing" textLength="93" x="355.5" y="175.9829">getAccount</text><polygon fill="#000000" points="359.5,211.7813,349.5,215.7813,359.5,219.7813,355.5,215.7813" style="stroke:#000000;stroke-width:1.0;"/><line style="stroke:#000000;stroke-width:1.0;stroke-dasharray:2.0,2.0;" x1="353.5" x2="608" y1="215.7813" y2="215.7813"/><text fill="#000000" font-family="sans-serif" font-size="17" lengthAdjust="spacing" textLength="51" x="551" y="209.772">status</text><path d="M215,237.7813 L285,237.7813 L285,244.9141 L275,254.9141 L215,254.9141 L215,237.7813 " fill="#EEEEEE" style="stroke:#000000;stroke-width:1.5;"/><rect fill="none" height="84.7109" style="stroke:#000000;stroke-width:1.5;" width="511" x="215" y="237.7813"/><text fill="#000000" font-family="sans-serif" font-size="13" font-weight="bold" lengthAdjust="spacing" textLength="25" x="230" y="250.8481">opt</text><text fill="#000000" font-family="sans-serif" font-size="11" font-weight="bold" lengthAdjust="spacing" textLength="134" x="300" y="249.9917">[Kontodaten ändern]</text><polygon fill="#000000" points="592,276.7031,602,280.7031,592,284.7031,596,280.7031" style="stroke:#000000;stroke-width:1.0;"/><line style="stroke:#000000;stroke-width:1.0;" x1="348.5" x2="598" y1="280.7031" y2="280.7031"/><text fill="#000000" font-family="sans-serif" font-size="17" lengthAdjust="spacing" textLength="91" x="355.5" y="274.6938">setAccount</text><polygon fill="#000000" points="359.5,310.4922,349.5,314.4922,359.5,318.4922,355.5,314.4922" style="stroke:#000000;stroke-width:1.0;"/><line style="stroke:#000000;stroke-width:1.0;stroke-dasharray:2.0,2.0;" x1="353.5" x2="608" y1="314.4922" y2="314.4922"/><text fill="#000000" font-family="sans-serif" font-size="17" lengthAdjust="spacing" textLength="51" x="551" y="308.4829">status</text><polygon fill="#000000" points="113.5,351.2813,103.5,355.2813,113.5,359.2813,109.5,355.2813" style="stroke:#000000;stroke-width:1.0;"/><line style="stroke:#000000;stroke-width:1.0;stroke-dasharray:2.0,2.0;" x1="107.5" x2="342.5" y1="355.2813" y2="355.2813"/><text fill="#000000" font-family="sans-serif" font-size="17" lengthAdjust="spacing" textLength="51" x="285.5" y="349.272">status</text><!--MD5=[0ee0e167b2922cf1177284e2b87f54ab]
@startuml
skinparam sequenceMessageAlign direction
skinparam minClassWidth 200
skinparam BoxPadding 15
skinparam sequenceReferenceHeaderBackgroundColor palegreen
scale max 2048 width
hide footbox

skinparam sequence {
ArrowColor black
ArrowFontSize 17
ActorBorderColor black
LifeLineBorderColor black
LifeLineBackgroundColor Gainsboro

ParticipantBorderColor Motivation
ParticipantBackgroundColor Motivation
ParticipantFontSize 20
ParticipantFontColor black
ParticipantBorderColor Black
ParticipantBackgroundColor MOTIVATION

ActorBackgroundColor Gainsboro
ActorFontColor black
ActorFontSize 20
ActorFontName Aapex
}
      actor L as "Leistungserbringer"
      box <size:18>Clientmodul\n #WhiteSmoke
      participant A as "Administrationsmodul"
      end box
      box <size:18>Fachdienst\n #WhiteSmoke
      participant AM as "Account-Manager"
      end box

L->A: Kontoverwaltung
 activate A
 opt Kontodaten abfragen
  A->AM: getAccount
 activate AM
 AM - -> A: status
 deactivate AM
 end
 opt Kontodaten ändern
  A->AM: setAccount
  activate AM
  AM - -> A: status
  deactivate AM
  end
 A- ->L: status
 deactivate A
@enduml

PlantUML version 1.2022.5(Sat Apr 30 10:55:52 UTC 2022)
(GPL source distribution)
Java Runtime: OpenJDK Runtime Environment
JVM: OpenJDK 64-Bit Server VM
Default Encoding: UTF-8
Language: en
Country: null
--></g></svg>