<svg xmlns="http://www.w3.org/2000/svg" xmlns:xlink="http://www.w3.org/1999/xlink" contentStyleType="text/css" height="1117px" preserveAspectRatio="none" style="width:1539px;height:1117px;background:#FFFFFF;" version="1.1" viewBox="0 0 1539 1117" width="1539px" zoomAndPan="magnify"><defs/><g><rect fill="#F5F5F5" height="1098.7188" style="stroke:#181818;stroke-width:0.5;" width="222" x="220.6328" y="6"/><text fill="#000000" font-family="sans-serif" font-size="18" font-weight="bold" lengthAdjust="spacing" textLength="140.748" x="261.2588" y="22.708">Prim&#228;rsystem</text><text fill="#000000" font-family="sans-serif" font-size="13" font-weight="bold" lengthAdjust="spacing" textLength="4.5259" x="261.2588" y="39.02">&#160;</text><rect fill="#F5F5F5" height="1098.7188" style="stroke:#181818;stroke-width:0.5;" width="222" x="474.6328" y="6"/><text fill="#000000" font-family="sans-serif" font-size="18" font-weight="bold" lengthAdjust="spacing" textLength="122.168" x="524.5488" y="22.708">Clientmodul</text><text fill="#000000" font-family="sans-serif" font-size="13" font-weight="bold" lengthAdjust="spacing" textLength="4.5259" x="524.5488" y="39.02">&#160;</text><rect fill="#F5F5F5" height="1098.7188" style="stroke:#181818;stroke-width:0.5;" width="729.8589" x="803.6343" y="6"/><text fill="#000000" font-family="sans-serif" font-size="18" font-weight="bold" lengthAdjust="spacing" textLength="111.3223" x="1112.9026" y="22.708">Fachdienst</text><text fill="#000000" font-family="sans-serif" font-size="13" font-weight="bold" lengthAdjust="spacing" textLength="4.5259" x="1112.9026" y="39.02">&#160;</text><rect fill="#DCDCDC" height="948.8594" style="stroke:#000000;stroke-width:1.0;" width="10" x="326.6328" y="143.8594"/><rect fill="#DCDCDC" height="881.2813" style="stroke:#000000;stroke-width:1.0;" width="10" x="580.6328" y="177.6484"/><rect fill="#DCDCDC" height="33.7891" style="stroke:#000000;stroke-width:1.0;" width="10" x="909.6343" y="348.9375"/><rect fill="#DCDCDC" height="220.9453" style="stroke:#000000;stroke-width:1.0;" width="10" x="1193.4932" y="596.4609"/><rect fill="#DCDCDC" height="33.7891" style="stroke:#000000;stroke-width:1.0;" width="10" x="1417.4932" y="991.3516"/><rect fill="none" height="585.9688" style="stroke:#000000;stroke-width:1.5;" width="953.3672" x="468.6328" y="306.0156"/><line style="stroke:#000000;stroke-width:0.5;stroke-dasharray:5.0,5.0;" x1="102" x2="102" y1="88.2813" y2="1110.7188"/><line style="stroke:#000000;stroke-width:0.5;stroke-dasharray:5.0,5.0;" x1="331.6328" x2="331.6328" y1="88.2813" y2="1110.7188"/><line style="stroke:#000000;stroke-width:0.5;stroke-dasharray:5.0,5.0;" x1="585.6328" x2="585.6328" y1="88.2813" y2="1110.7188"/><line style="stroke:#000000;stroke-width:0.5;stroke-dasharray:5.0,5.0;" x1="914.6343" x2="914.6343" y1="88.2813" y2="1110.7188"/><line style="stroke:#000000;stroke-width:0.5;stroke-dasharray:5.0,5.0;" x1="1198.4932" x2="1198.4932" y1="88.2813" y2="1110.7188"/><line style="stroke:#000000;stroke-width:0.5;stroke-dasharray:5.0,5.0;" x1="1422.4932" x2="1422.4932" y1="88.2813" y2="1110.7188"/><text fill="#000000" font-family="Aapex" font-size="20" lengthAdjust="spacing" textLength="188.6328" x="5" y="83.5645">Leistungserbringer</text><ellipse cx="102.3164" cy="13.5" fill="#DCDCDC" rx="8" ry="8" style="stroke:#000000;stroke-width:0.5;"/><path d="M102.3164,21.5 L102.3164,48.5 M89.3164,29.5 L115.3164,29.5 M102.3164,48.5 L89.3164,63.5 M102.3164,48.5 L115.3164,63.5 " fill="none" style="stroke:#000000;stroke-width:0.5;"/><rect fill="#EFEFFF" height="37.2813" rx="2.5" ry="2.5" style="stroke:#000000;stroke-width:0.5;" width="214" x="224.6328" y="50"/><text fill="#000000" font-family="sans-serif" font-size="20" lengthAdjust="spacing" textLength="179.1797" x="242.043" y="75.5645">PVS/KIS/Mailclient</text><rect fill="#EFEFFF" height="37.2813" rx="2.5" ry="2.5" style="stroke:#000000;stroke-width:0.5;" width="214" x="478.6328" y="50"/><text fill="#000000" font-family="sans-serif" font-size="20" lengthAdjust="spacing" textLength="107.6855" x="531.79" y="75.5645">KIM-Dienst</text><rect fill="#EFEFFF" height="37.2813" rx="2.5" ry="2.5" style="stroke:#000000;stroke-width:0.5;" width="214" x="807.6343" y="50"/><text fill="#000000" font-family="sans-serif" font-size="20" lengthAdjust="spacing" textLength="175.9863" x="826.6411" y="75.5645">Account-Manager</text><rect fill="#EFEFFF" height="37.2813" rx="2.5" ry="2.5" style="stroke:#000000;stroke-width:0.5;" width="214" x="1091.4932" y="50"/><text fill="#000000" font-family="sans-serif" font-size="20" lengthAdjust="spacing" textLength="39.4922" x="1178.7471" y="75.5645">KAS</text><rect fill="#EFEFFF" height="37.2813" rx="2.5" ry="2.5" style="stroke:#000000;stroke-width:0.5;" width="214" x="1315.4932" y="50"/><text fill="#000000" font-family="sans-serif" font-size="20" lengthAdjust="spacing" textLength="103.9355" x="1370.5254" y="75.5645">Mailserver</text><rect fill="#DCDCDC" height="948.8594" style="stroke:#000000;stroke-width:1.0;" width="10" x="326.6328" y="143.8594"/><rect fill="#DCDCDC" height="881.2813" style="stroke:#000000;stroke-width:1.0;" width="10" x="580.6328" y="177.6484"/><rect fill="#DCDCDC" height="33.7891" style="stroke:#000000;stroke-width:1.0;" width="10" x="909.6343" y="348.9375"/><rect fill="#DCDCDC" height="220.9453" style="stroke:#000000;stroke-width:1.0;" width="10" x="1193.4932" y="596.4609"/><rect fill="#DCDCDC" height="33.7891" style="stroke:#000000;stroke-width:1.0;" width="10" x="1417.4932" y="991.3516"/><polygon fill="#000000" points="314.6328,139.8594,324.6328,143.8594,314.6328,147.8594,318.6328,143.8594" style="stroke:#000000;stroke-width:1.0;"/><line style="stroke:#000000;stroke-width:1.0;" x1="102.3164" x2="320.6328" y1="143.8594" y2="143.8594"/><text fill="#000000" font-family="sans-serif" font-size="17" lengthAdjust="spacing" textLength="146.0439" x="109.3164" y="118.061">Email mit gro&#223;en</text><text fill="#000000" font-family="sans-serif" font-size="17" lengthAdjust="spacing" textLength="171.4277" x="114.7202" y="137.8501">Anh&#228;ngen erzeugen</text><polygon fill="#000000" points="568.6328,173.6484,578.6328,177.6484,568.6328,181.6484,572.6328,177.6484" style="stroke:#000000;stroke-width:1.0;"/><line style="stroke:#000000;stroke-width:1.0;" x1="336.6328" x2="574.6328" y1="177.6484" y2="177.6484"/><text fill="#000000" font-family="sans-serif" font-size="17" lengthAdjust="spacing" textLength="157.8145" x="343.6328" y="171.6392">E-Mail weiterleiten</text><line style="stroke:#000000;stroke-width:1.0;" x1="590.6328" x2="632.6328" y1="211.4375" y2="211.4375"/><line style="stroke:#000000;stroke-width:1.0;" x1="632.6328" x2="632.6328" y1="211.4375" y2="224.4375"/><line style="stroke:#000000;stroke-width:1.0;" x1="591.6328" x2="632.6328" y1="224.4375" y2="224.4375"/><polygon fill="#000000" points="601.6328,220.4375,591.6328,224.4375,601.6328,228.4375,597.6328,224.4375" style="stroke:#000000;stroke-width:1.0;"/><text fill="#000000" font-family="sans-serif" font-size="17" lengthAdjust="spacing" textLength="195.0352" x="597.6328" y="205.4282">Pr&#252;fen der E-Mailgr&#246;&#223;e</text><line style="stroke:#000000;stroke-width:1.0;" x1="590.6328" x2="632.6328" y1="278.0156" y2="278.0156"/><line style="stroke:#000000;stroke-width:1.0;" x1="632.6328" x2="632.6328" y1="278.0156" y2="291.0156"/><line style="stroke:#000000;stroke-width:1.0;" x1="591.6328" x2="632.6328" y1="291.0156" y2="291.0156"/><polygon fill="#000000" points="601.6328,287.0156,591.6328,291.0156,601.6328,295.0156,597.6328,291.0156" style="stroke:#000000;stroke-width:1.0;"/><text fill="#000000" font-family="sans-serif" font-size="17" lengthAdjust="spacing" textLength="195.0767" x="597.6328" y="252.2173">Pr&#252;fen der KIM-Version</text><text fill="#000000" font-family="sans-serif" font-size="17" lengthAdjust="spacing" textLength="137.876" x="603.0366" y="272.0063">des Empf&#228;ngers</text><path d="M468.6328,306.0156 L538.084,306.0156 L538.084,313.1484 L528.084,323.1484 L468.6328,323.1484 L468.6328,306.0156 " fill="#EEEEEE" style="stroke:#000000;stroke-width:1.5;"/><rect fill="none" height="585.9688" style="stroke:#000000;stroke-width:1.5;" width="953.3672" x="468.6328" y="306.0156"/><text fill="#000000" font-family="sans-serif" font-size="13" font-weight="bold" lengthAdjust="spacing" textLength="24.4512" x="483.6328" y="319.0825">opt</text><text fill="#000000" font-family="sans-serif" font-size="11" font-weight="bold" lengthAdjust="spacing" textLength="119.8774" x="553.084" y="318.2261">[Mailgr&#246;&#223;e&gt;15 MB]</text><polygon fill="#000000" points="897.6343,344.9375,907.6343,348.9375,897.6343,352.9375,901.6343,348.9375" style="stroke:#000000;stroke-width:1.0;"/><line style="stroke:#000000;stroke-width:1.0;" x1="590.6328" x2="903.6343" y1="348.9375" y2="348.9375"/><text fill="#000000" font-family="sans-serif" font-size="17" lengthAdjust="spacing" textLength="78.9155" x="597.6328" y="342.9282">getLimits</text><polygon fill="#000000" points="601.6328,378.7266,591.6328,382.7266,601.6328,386.7266,597.6328,382.7266" style="stroke:#000000;stroke-width:1.0;"/><line style="stroke:#000000;stroke-width:1.0;stroke-dasharray:2.0,2.0;" x1="595.6328" x2="913.6343" y1="382.7266" y2="382.7266"/><text fill="#000000" font-family="sans-serif" font-size="17" lengthAdjust="spacing" textLength="51" x="856.6343" y="376.7173">Limits</text><line style="stroke:#000000;stroke-width:1.0;" x1="590.6328" x2="632.6328" y1="436.3047" y2="436.3047"/><line style="stroke:#000000;stroke-width:1.0;" x1="632.6328" x2="632.6328" y1="436.3047" y2="449.3047"/><line style="stroke:#000000;stroke-width:1.0;" x1="591.6328" x2="632.6328" y1="449.3047" y2="449.3047"/><polygon fill="#000000" points="601.6328,445.3047,591.6328,449.3047,601.6328,453.3047,597.6328,449.3047" style="stroke:#000000;stroke-width:1.0;"/><text fill="#000000" font-family="sans-serif" font-size="17" lengthAdjust="spacing" textLength="278.1841" x="597.6328" y="410.5063">Erzeugung eines symmetrischen</text><text fill="#000000" font-family="sans-serif" font-size="17" lengthAdjust="spacing" textLength="188.627" x="603.0366" y="430.2954">Schl&#252;ssels f&#252;r die Mail</text><line style="stroke:#000000;stroke-width:1.0;" x1="590.6328" x2="632.6328" y1="483.0938" y2="483.0938"/><line style="stroke:#000000;stroke-width:1.0;" x1="632.6328" x2="632.6328" y1="483.0938" y2="496.0938"/><line style="stroke:#000000;stroke-width:1.0;" x1="591.6328" x2="632.6328" y1="496.0938" y2="496.0938"/><polygon fill="#000000" points="601.6328,492.0938,591.6328,496.0938,601.6328,500.0938,597.6328,496.0938" style="stroke:#000000;stroke-width:1.0;"/><text fill="#000000" font-family="sans-serif" font-size="17" lengthAdjust="spacing" textLength="205.3198" x="597.6328" y="477.0845">Bildung des Hashwertes</text><line style="stroke:#000000;stroke-width:1.0;" x1="590.6328" x2="632.6328" y1="549.6719" y2="549.6719"/><line style="stroke:#000000;stroke-width:1.0;" x1="632.6328" x2="632.6328" y1="549.6719" y2="562.6719"/><line style="stroke:#000000;stroke-width:1.0;" x1="591.6328" x2="632.6328" y1="562.6719" y2="562.6719"/><polygon fill="#000000" points="601.6328,558.6719,591.6328,562.6719,601.6328,566.6719,597.6328,562.6719" style="stroke:#000000;stroke-width:1.0;"/><text fill="#000000" font-family="sans-serif" font-size="17" lengthAdjust="spacing" textLength="212.3672" x="597.6328" y="523.8735">Verschl&#252;sselung der Mail</text><text fill="#000000" font-family="sans-serif" font-size="17" lengthAdjust="spacing" textLength="292.3618" x="597.6328" y="543.6626">mit dem symmetrischen Schl&#252;ssel</text><polygon fill="#000000" points="1181.4932,592.4609,1191.4932,596.4609,1181.4932,600.4609,1185.4932,596.4609" style="stroke:#000000;stroke-width:1.0;"/><line style="stroke:#000000;stroke-width:1.0;" x1="590.6328" x2="1187.4932" y1="596.4609" y2="596.4609"/><text fill="#000000" font-family="sans-serif" font-size="17" lengthAdjust="spacing" textLength="583.8604" x="597.6328" y="590.4517">add_Maildata (recipients, messageID, expires, verschl&#252;sselte E-Mail)</text><line style="stroke:#000000;stroke-width:1.0;" x1="1203.4932" x2="1245.4932" y1="630.25" y2="630.25"/><line style="stroke:#000000;stroke-width:1.0;" x1="1245.4932" x2="1245.4932" y1="630.25" y2="643.25"/><line style="stroke:#000000;stroke-width:1.0;" x1="1204.4932" x2="1245.4932" y1="643.25" y2="643.25"/><polygon fill="#000000" points="1214.4932,639.25,1204.4932,643.25,1214.4932,647.25,1210.4932,643.25" style="stroke:#000000;stroke-width:1.0;"/><text fill="#000000" font-family="sans-serif" font-size="17" lengthAdjust="spacing" textLength="175.3872" x="1210.4932" y="624.2407">Berechtigung pr&#252;fen</text><line style="stroke:#000000;stroke-width:1.0;" x1="1203.4932" x2="1245.4932" y1="677.0391" y2="677.0391"/><line style="stroke:#000000;stroke-width:1.0;" x1="1245.4932" x2="1245.4932" y1="677.0391" y2="690.0391"/><line style="stroke:#000000;stroke-width:1.0;" x1="1204.4932" x2="1245.4932" y1="690.0391" y2="690.0391"/><polygon fill="#000000" points="1214.4932,686.0391,1204.4932,690.0391,1214.4932,694.0391,1210.4932,690.0391" style="stroke:#000000;stroke-width:1.0;"/><text fill="#000000" font-family="sans-serif" font-size="17" lengthAdjust="spacing" textLength="155.8804" x="1210.4932" y="671.0298">Dateigr&#246;&#223;e pr&#252;fen</text><line style="stroke:#000000;stroke-width:1.0;" x1="1203.4932" x2="1245.4932" y1="723.8281" y2="723.8281"/><line style="stroke:#000000;stroke-width:1.0;" x1="1245.4932" x2="1245.4932" y1="723.8281" y2="736.8281"/><line style="stroke:#000000;stroke-width:1.0;" x1="1204.4932" x2="1245.4932" y1="736.8281" y2="736.8281"/><polygon fill="#000000" points="1214.4932,732.8281,1204.4932,736.8281,1214.4932,740.8281,1210.4932,736.8281" style="stroke:#000000;stroke-width:1.0;"/><text fill="#000000" font-family="sans-serif" font-size="17" lengthAdjust="spacing" textLength="189.5068" x="1210.4932" y="717.8188">Freigabelink erzeugen</text><line style="stroke:#000000;stroke-width:1.0;" x1="1203.4932" x2="1245.4932" y1="770.6172" y2="770.6172"/><line style="stroke:#000000;stroke-width:1.0;" x1="1245.4932" x2="1245.4932" y1="770.6172" y2="783.6172"/><line style="stroke:#000000;stroke-width:1.0;" x1="1204.4932" x2="1245.4932" y1="783.6172" y2="783.6172"/><polygon fill="#000000" points="1214.4932,779.6172,1204.4932,783.6172,1214.4932,787.6172,1210.4932,783.6172" style="stroke:#000000;stroke-width:1.0;"/><text fill="#000000" font-family="sans-serif" font-size="17" lengthAdjust="spacing" textLength="182.0361" x="1210.4932" y="764.6079">E-Mail Daten ablegen</text><polygon fill="#000000" points="601.6328,813.4063,591.6328,817.4063,601.6328,821.4063,597.6328,817.4063" style="stroke:#000000;stroke-width:1.0;"/><line style="stroke:#000000;stroke-width:1.0;stroke-dasharray:2.0,2.0;" x1="595.6328" x2="1197.4932" y1="817.4063" y2="817.4063"/><text fill="#000000" font-family="sans-serif" font-size="17" lengthAdjust="spacing" textLength="104.4736" x="1087.0195" y="811.397">Freigabelink</text><line style="stroke:#000000;stroke-width:1.0;" x1="590.6328" x2="632.6328" y1="870.9844" y2="870.9844"/><line style="stroke:#000000;stroke-width:1.0;" x1="632.6328" x2="632.6328" y1="870.9844" y2="883.9844"/><line style="stroke:#000000;stroke-width:1.0;" x1="591.6328" x2="632.6328" y1="883.9844" y2="883.9844"/><polygon fill="#000000" points="601.6328,879.9844,591.6328,883.9844,601.6328,887.9844,597.6328,883.9844" style="stroke:#000000;stroke-width:1.0;"/><text fill="#000000" font-family="sans-serif" font-size="17" lengthAdjust="spacing" textLength="262.0225" x="597.6328" y="845.186">KIM-Attachment-Datenstruktur</text><text fill="#000000" font-family="sans-serif" font-size="17" lengthAdjust="spacing" textLength="295.0015" x="597.6328" y="864.9751">im Body der KOM-LE-Mail einf&#252;gen</text><line style="stroke:#000000;stroke-width:1.0;" x1="590.6328" x2="632.6328" y1="944.5625" y2="944.5625"/><line style="stroke:#000000;stroke-width:1.0;" x1="632.6328" x2="632.6328" y1="944.5625" y2="957.5625"/><line style="stroke:#000000;stroke-width:1.0;" x1="591.6328" x2="632.6328" y1="957.5625" y2="957.5625"/><polygon fill="#000000" points="601.6328,953.5625,591.6328,957.5625,601.6328,961.5625,597.6328,957.5625" style="stroke:#000000;stroke-width:1.0;"/><text fill="#000000" font-family="sans-serif" font-size="17" lengthAdjust="spacing" textLength="190.1626" x="597.6328" y="918.7642">KOM-LE-Mail signieren</text><text fill="#000000" font-family="sans-serif" font-size="17" lengthAdjust="spacing" textLength="279.0723" x="597.6328" y="938.5532">und asymmetrisch verschl&#252;sseln</text><polygon fill="#000000" points="1405.4932,987.3516,1415.4932,991.3516,1405.4932,995.3516,1409.4932,991.3516" style="stroke:#000000;stroke-width:1.0;"/><line style="stroke:#000000;stroke-width:1.0;" x1="590.6328" x2="1411.4932" y1="991.3516" y2="991.3516"/><text fill="#000000" font-family="sans-serif" font-size="17" lengthAdjust="spacing" textLength="120.793" x="597.6328" y="985.3423">send Message</text><polygon fill="#000000" points="601.6328,1021.1406,591.6328,1025.1406,601.6328,1029.1406,597.6328,1025.1406" style="stroke:#000000;stroke-width:1.0;"/><line style="stroke:#000000;stroke-width:1.0;stroke-dasharray:2.0,2.0;" x1="595.6328" x2="1421.4932" y1="1025.1406" y2="1025.1406"/><text fill="#000000" font-family="sans-serif" font-size="17" lengthAdjust="spacing" textLength="52.2368" x="1363.2563" y="1019.1313">status</text><polygon fill="#000000" points="347.6328,1054.9297,337.6328,1058.9297,347.6328,1062.9297,343.6328,1058.9297" style="stroke:#000000;stroke-width:1.0;"/><line style="stroke:#000000;stroke-width:1.0;stroke-dasharray:2.0,2.0;" x1="341.6328" x2="584.6328" y1="1058.9297" y2="1058.9297"/><text fill="#000000" font-family="sans-serif" font-size="17" lengthAdjust="spacing" textLength="52.2368" x="526.396" y="1052.9204">status</text><polygon fill="#000000" points="113.3164,1088.7188,103.3164,1092.7188,113.3164,1096.7188,109.3164,1092.7188" style="stroke:#000000;stroke-width:1.0;"/><line style="stroke:#000000;stroke-width:1.0;stroke-dasharray:2.0,2.0;" x1="107.3164" x2="330.6328" y1="1092.7188" y2="1092.7188"/><text fill="#000000" font-family="sans-serif" font-size="17" lengthAdjust="spacing" textLength="52.2368" x="272.396" y="1086.7095">status</text><!--SRC=[ZLNTRjis5BxdKnoa5ztGQecB1YkCmO2SDAjXgn6c8hq9CD3IiKnO8ZMIJfmEUvRTz1bsbJk_s0v9sPOzTPi16pJFETzt_dd-ahs0wII1mG-NT8hpNAsbXOHBNgAccmn_MwFC4Qu5BpMlwUeZht48jmrgReMIiE86QYugC2WBbEpbEMFCh8HiE1dGRK18q1W2ZIjHIYY4njnPTnHh8QygRindKTWblBcuwCZ6QfFoeX2oXC5b3_Wlk43j3X-G5wZ7F5-Lca8fhbIbD3Iymb8ZEMToEfAx6o9u-muU7HTRYW9XePITgqsVw_0xYxLMZm5iNX5wkBXHqcRY2yBWHnRdLkcnqaJVrPk91Sw4n7-Hd3ZxCnVIp9LMZALSMv6BXalRjK-K5Gy- -KSQ9pZzMdkNtroSNdUT-mRp-1_2KzBRJvEx-DFazYDhC_BDwBpub7T_kVDnV-7Q3cBUu8RzmS1_k9F13AW1psOeZ5tBqg2UQ-eJr6Uj5XKLVZ84Dnoy6wLQrDklsZmPY_MzX1UVby9YLgiLjkhXqnn2XDGJf7VP-NIIdIVKwdabKDeT0RMz8-cZk_AAjIhMLIzPbsQQU1wQnkYQhCp_mR_X-RBmoly97mVuTiIZTiJF-Xm9ViHPdp39lDHbWLBzS43OUSbcqIWTmdk_4cfXWQg__HCbEHZBvVOhbKO2wY-ufWDpDNHTYf0oIAFHD27JoA738r8qkdA_NRrfmkWRD5EzVLuG7FLdQrNgxL_4rg_YKdk7sj18tBiRGrus2- -IDWnKupRV7cCqk8Ha791YGYhHpWG5P3hEnEHCd4I1QYSjy4Y-y-IzZvbQ592cte1vgckqMfXywREJvSjg-smCLWOMssTDInAzFmU8iQWA1-1S_y3DyX6rHNEGk-3sA45HUmYubwuK1TR7j1tI5cK8j6T_TJO5jno-epqj6jV4vZNKOOLFhby3RXfQuNJtqAMaY4CPlkyMZ90zy9XMTBwqmkUW2NNPoQv9KxI9FvNTQ1BnELP2hZgT4uHjipXx2NnEUpx8GaAwfaU5cHwIvheYjfOcgQOm8uzah5wlx5fJteHxVOgdq42tIJHh6Qc8L2NFHgtVWUle67hhX7kO28Ss84tE8Vd7cPC18CbUlHhwXnJQzvBHnFbWeeW4bjjrgBSRijtVRbo96wDeDEiJfdy3]--></g></svg>