<?xml version="1.0" encoding="us-ascii" standalone="no"?><svg xmlns="http://www.w3.org/2000/svg" xmlns:xlink="http://www.w3.org/1999/xlink" contentStyleType="text/css" height="648px" preserveAspectRatio="none" style="width:1346px;height:648px;background:#FFFFFF;" version="1.1" viewBox="0 0 1346 648" width="1346px" zoomAndPan="magnify"><defs/><g><!--cluster SchnittstellenPS-KIM--><g id="cluster_SchnittstellenPS-KIM"><path d="M17,12 L359,12 A7.5,7.5 0 0 1 364,17 L378,56.5938 L1327,56.5938 A5,5 0 0 1 1332,61.5938 L1332,629 A5,5 0 0 1 1327,634 L17,634 A5,5 0 0 1 12,629 L12,17 A5,5 0 0 1 17,12 " fill="none" style="stroke:#000000;stroke-width:3.0;"/><line style="stroke:#000000;stroke-width:3.0;" x1="12" x2="378" y1="56.5938" y2="56.5938"/><text fill="#000000" font-family="sans-serif" font-size="28" font-weight="bold" lengthAdjust="spacing" textLength="340" x="20" y="41.9902">SchnittstellenPS-KIM</text></g><!--entity Prim?rsystem--><g id="elem_Prim&#228;rsystem"><rect fill="#F1F1F1" height="92.5938" rx="5" ry="5" style="stroke:#181818;stroke-width:1.0;" width="278" x="44" y="296"/><rect fill="#F1F1F1" height="20" style="stroke:#181818;stroke-width:1.0;" width="30" x="282" y="306"/><rect fill="#F1F1F1" height="4" style="stroke:#181818;stroke-width:1.0;" width="8" x="278" y="310"/><rect fill="#F1F1F1" height="4" style="stroke:#181818;stroke-width:1.0;" width="8" x="278" y="318"/><text fill="#000000" font-family="sans-serif" font-size="28" lengthAdjust="spacing" textLength="198" x="74" y="361.9902">Prim&#228;rsystem</text></g><!--entity POP3-Proxy\n&#91;KIM-Clientmodul&#93;--><g id="elem_POP3-Proxy\n&amp;#91;KIM-Clientmodul&amp;#93;"><rect fill="#F1F1F1" height="125.1875" rx="5" ry="5" style="stroke:#181818;stroke-width:1.0;" width="338" x="474" y="475"/><rect fill="#F1F1F1" height="20" style="stroke:#181818;stroke-width:1.0;" width="30" x="772" y="485"/><rect fill="#F1F1F1" height="4" style="stroke:#181818;stroke-width:1.0;" width="8" x="768" y="489"/><rect fill="#F1F1F1" height="4" style="stroke:#181818;stroke-width:1.0;" width="8" x="768" y="497"/><text fill="#000000" font-family="sans-serif" font-size="28" lengthAdjust="spacing" textLength="168" x="504" y="540.9902">POP3-Proxy</text><text fill="#000000" font-family="sans-serif" font-size="28" lengthAdjust="spacing" textLength="258" x="504" y="573.584">[KIM-Clientmodul]</text></g><!--entity SMTP-Proxy\n&#91;KIM-Clientmodul&#93;--><g id="elem_SMTP-Proxy\n&amp;#91;KIM-Clientmodul&amp;#93;"><rect fill="#F1F1F1" height="125.1875" rx="5" ry="5" style="stroke:#181818;stroke-width:1.0;" width="338" x="474" y="279"/><rect fill="#F1F1F1" height="20" style="stroke:#181818;stroke-width:1.0;" width="30" x="772" y="289"/><rect fill="#F1F1F1" height="4" style="stroke:#181818;stroke-width:1.0;" width="8" x="768" y="293"/><rect fill="#F1F1F1" height="4" style="stroke:#181818;stroke-width:1.0;" width="8" x="768" y="301"/><text fill="#000000" font-family="sans-serif" font-size="28" lengthAdjust="spacing" textLength="170" x="504" y="344.9902">SMTP-Proxy</text><text fill="#000000" font-family="sans-serif" font-size="28" lengthAdjust="spacing" textLength="258" x="504" y="377.584">[KIM-Clientmodul]</text></g><!--entity LDAPv3-Proxy\n&#91;Konnektor&#93;--><g id="elem_LDAPv3-Proxy\n&amp;#91;Konnektor&amp;#93;"><rect fill="#F1F1F1" height="125.1875" rx="5" ry="5" style="stroke:#181818;stroke-width:1.0;" width="282" x="502" y="83"/><rect fill="#F1F1F1" height="20" style="stroke:#181818;stroke-width:1.0;" width="30" x="744" y="93"/><rect fill="#F1F1F1" height="4" style="stroke:#181818;stroke-width:1.0;" width="8" x="740" y="97"/><rect fill="#F1F1F1" height="4" style="stroke:#181818;stroke-width:1.0;" width="8" x="740" y="105"/><text fill="#000000" font-family="sans-serif" font-size="28" lengthAdjust="spacing" textLength="202" x="532" y="148.9902">LDAPv3-Proxy</text><text fill="#000000" font-family="sans-serif" font-size="28" lengthAdjust="spacing" textLength="174" x="532" y="181.584">[Konnektor]</text></g><!--entity Verzeichnisdienst--><g id="elem_Verzeichnisdienst"><rect fill="#F1F1F1" height="92.5938" rx="5" ry="5" style="stroke:#181818;stroke-width:1.0;" width="336" x="964" y="160"/><rect fill="#F1F1F1" height="20" style="stroke:#181818;stroke-width:1.0;" width="30" x="1260" y="170"/><rect fill="#F1F1F1" height="4" style="stroke:#181818;stroke-width:1.0;" width="8" x="1256" y="174"/><rect fill="#F1F1F1" height="4" style="stroke:#181818;stroke-width:1.0;" width="8" x="1256" y="182"/><text fill="#000000" font-family="sans-serif" font-size="28" lengthAdjust="spacing" textLength="256" x="994" y="225.9902">Verzeichnisdienst</text></g><!--entity KIM-Provider--><g id="elem_KIM-Provider"><rect fill="#F1F1F1" height="92.5938" rx="5" ry="5" style="stroke:#181818;stroke-width:1.0;" width="264" x="1000" y="390"/><rect fill="#F1F1F1" height="20" style="stroke:#181818;stroke-width:1.0;" width="30" x="1224" y="400"/><rect fill="#F1F1F1" height="4" style="stroke:#181818;stroke-width:1.0;" width="8" x="1220" y="404"/><rect fill="#F1F1F1" height="4" style="stroke:#181818;stroke-width:1.0;" width="8" x="1220" y="412"/><text fill="#000000" font-family="sans-serif" font-size="28" lengthAdjust="spacing" textLength="184" x="1030" y="455.9902">KIM-Provider</text></g><!--link Prim?rsystem to POP3-Proxy\n&#91;KIM-Clientmodul&#93;--><g id="link_Prim&#228;rsystem_POP3-Proxy\n&amp;#91;KIM-Clientmodul&amp;#93;"><path d="M292.488,388.202 C352.522,414.006 417.1752,441.7954 482.6572,469.9408 " fill="none" id="Prim&#228;rsystem-to-POP3-Proxy\n&amp;#91;KIM-Clientmodul&amp;#93;" style="stroke:#FF6655;stroke-width:2.0;stroke-dasharray:7.0,7.0;"/><polygon fill="#FF6655" points="493.682,474.6794,480.304,460.2216,484.4947,470.7305,473.9858,474.9213,493.682,474.6794" style="stroke:#FF6655;stroke-width:2.0;"/><text fill="#777777" font-family="Impact" font-size="16" lengthAdjust="spacing" textLength="28" x="384" y="420.8516">use</text></g><!--link Prim?rsystem to SMTP-Proxy\n&#91;KIM-Clientmodul&#93;--><g id="link_Prim&#228;rsystem_SMTP-Proxy\n&amp;#91;KIM-Clientmodul&amp;#93;"><path d="M322.434,342 C369.898,342 411.616,342 461.234,342 " fill="none" id="Prim&#228;rsystem-to-SMTP-Proxy\n&amp;#91;KIM-Clientmodul&amp;#93;" style="stroke:#FF6655;stroke-width:2.0;stroke-dasharray:7.0,7.0;"/><polygon fill="#FF6655" points="473.234,342,455.234,334,463.234,342,455.234,350,473.234,342" style="stroke:#FF6655;stroke-width:2.0;"/><text fill="#777777" font-family="Impact" font-size="16" lengthAdjust="spacing" textLength="28" x="384" y="334.8516">use</text></g><!--link Prim?rsystem to LDAPv3-Proxy\n&#91;Konnektor&#93;--><g id="link_Prim&#228;rsystem_LDAPv3-Proxy\n&amp;#91;Konnektor&amp;#93;"><path d="M292.488,295.798 C354.892,268.976 423.1733,239.6267 490.3633,210.7467 " fill="none" id="Prim&#228;rsystem-to-LDAPv3-Proxy\n&amp;#91;Konnektor&amp;#93;" style="stroke:#FF6655;stroke-width:2.0;stroke-dasharray:7.0,7.0;"/><polygon fill="#FF6655" points="501.388,206.008,481.6918,205.7663,492.2007,209.9569,488.0101,220.4659,501.388,206.008" style="stroke:#FF6655;stroke-width:2.0;"/><text fill="#777777" font-family="Impact" font-size="16" lengthAdjust="spacing" textLength="28" x="384" y="236.8516">use</text></g><!--link LDAPv3-Proxy\n&#91;Konnektor&#93; to Verzeichnisdienst--><g id="link_LDAPv3-Proxy\n&amp;#91;Konnektor&amp;#93;_Verzeichnisdienst"><path d="M784.632,163.274 C840.6,170.198 893.6328,176.7588 951.9968,183.9788 " fill="none" id="LDAPv3-Proxy\n&amp;#91;Konnektor&amp;#93;-to-Verzeichnisdienst" style="stroke:#FF6655;stroke-width:2.0;stroke-dasharray:7.0,7.0;"/><polygon fill="#FF6655" points="963.906,185.452,947.0243,175.3026,953.9816,184.2243,945.06,191.1816,963.906,185.452" style="stroke:#FF6655;stroke-width:2.0;"/><text fill="#777777" font-family="Impact" font-size="16" lengthAdjust="spacing" textLength="28" x="874" y="168.8516">use</text></g><!--link SMTP-Proxy\n&#91;KIM-Clientmodul&#93; to Verzeichnisdienst--><g id="link_SMTP-Proxy\n&amp;#91;KIM-Clientmodul&amp;#93;_Verzeichnisdienst"><path d="M812.588,295.006 C862.146,281.11 904.7796,269.1539 954.1296,255.3159 " fill="none" id="SMTP-Proxy\n&amp;#91;KIM-Clientmodul&amp;#93;-to-Verzeichnisdienst" style="stroke:#FF6655;stroke-width:2.0;stroke-dasharray:7.0,7.0;"/><polygon fill="#FF6655" points="965.684,252.076,946.1925,249.233,956.0554,254.7759,950.5124,264.6388,965.684,252.076" style="stroke:#FF6655;stroke-width:2.0;"/><text fill="#777777" font-family="Impact" font-size="16" lengthAdjust="spacing" textLength="28" x="874" y="260.8516">use</text></g><!--link POP3-Proxy\n&#91;KIM-Clientmodul&#93; to KIM-Provider--><g id="link_POP3-Proxy\n&amp;#91;KIM-Clientmodul&amp;#93;_KIM-Provider"><path d="M812.588,502.7546 C873.92,489.8558 930.5989,477.936 988.1669,465.8296 " fill="none" id="POP3-Proxy\n&amp;#91;KIM-Clientmodul&amp;#93;-to-KIM-Provider" style="stroke:#FF6655;stroke-width:2.0;stroke-dasharray:7.0,7.0;"/><polygon fill="#FF6655" points="999.91,463.36,980.6489,459.2356,990.1241,465.418,983.9417,474.8931,999.91,463.36" style="stroke:#FF6655;stroke-width:2.0;"/><text fill="#777777" font-family="Impact" font-size="16" lengthAdjust="spacing" textLength="28" x="874" y="474.8516">use</text></g><!--link SMTP-Proxy\n&#91;KIM-Clientmodul&#93; to KIM-Provider--><g id="link_SMTP-Proxy\n&amp;#91;KIM-Clientmodul&amp;#93;_KIM-Provider"><path d="M812.588,374.482 C873.92,386.368 930.5612,397.347 988.1292,408.503 " fill="none" id="SMTP-Proxy\n&amp;#91;KIM-Clientmodul&amp;#93;-to-KIM-Provider" style="stroke:#FF6655;stroke-width:2.0;stroke-dasharray:7.0,7.0;"/><polygon fill="#FF6655" points="999.91,410.786,983.7607,399.5076,990.0926,408.8835,980.7168,415.2154,999.91,410.786" style="stroke:#FF6655;stroke-width:2.0;"/><text fill="#777777" font-family="Impact" font-size="16" lengthAdjust="spacing" textLength="28" x="874" y="378.8516">use</text></g><!--SRC=[fLF1RXen4BtxAomXDISW546I9aBQK56XGbXfKIvf3ixk01PUpzRs4aYKl-cVzCVYDGGMXqIetTFwpPitRyQU-Wcfq9_z8MtKMhMb_GyLJnaelT86KW7SJ5W2qWQYU2QvCHOMmW8dTKA8ddEPCSLIocA3AZ8h0PGzWiOKY829eGQfujEPeGbN41kEakYOMLQxtYpdQ_YTWuo1FXDA0wNmiOi25NqGB9w_GJsK9k9FG1jd1LIKl4QLWDhd3lW41bp2fp5xd2hCPRAE_s1SwWTKM3OLOvgX16cSgrtrKtlo1AwkWep5C-XqR0dRRnSL4mLjvw54gVHwxNQhjH6zOIdGBkQAWzfFsThsxKvH9EMfE8b-QlNDks6TxqzqLtjBsmJEt4TU20cPCZpc6PEcx6Q8XY-OkyGom_DscEMxz4BEwTTJ7ovFuGDJr- -2lf_Hk7yRZFkZ6qBMR-R3ktTXl-uMN5z-SmUuVWAMmR8OccrhpgRWBKeOLOlrUYPtnMRz_RFPh7jQgtNeNJWAczLGuNBrItwfN3GkBRVQ5To-kHIJN5YiUNbFl-KQ3Wj4mt7uNmA3xq6uy3oWb32tFUub7q5qWhUWde0NCz29jQ7Dcy2HLZyNEN9WJgG8MUg2sxVoBoOEvB-y0W00]--></g></svg>