<?xml version="1.0" encoding="us-ascii" standalone="no"?><svg xmlns="http://www.w3.org/2000/svg" xmlns:xlink="http://www.w3.org/1999/xlink" contentStyleType="text/css" height="648px" preserveAspectRatio="none" style="width:1414px;height:648px;background:#FFFFFF;" version="1.1" viewBox="0 0 1414 648" width="1414px" zoomAndPan="magnify"><defs/><g><!--cluster SchnittstellenPS-KIM--><g id="cluster_SchnittstellenPS-KIM"><path d="M17,12 L359,12 A7.5,7.5 0 0 1 364,17 L378,56.5938 L1395,56.5938 A5,5 0 0 1 1400,61.5938 L1400,629 A5,5 0 0 1 1395,634 L17,634 A5,5 0 0 1 12,629 L12,17 A5,5 0 0 1 17,12 " fill="none" style="stroke:#000000;stroke-width:3.0;"/><line style="stroke:#000000;stroke-width:3.0;" x1="12" x2="378" y1="56.5938" y2="56.5938"/><text fill="#000000" font-family="sans-serif" font-size="28" font-weight="bold" lengthAdjust="spacing" textLength="340" x="20" y="41.9902">SchnittstellenPS-KIM</text></g><!--entity Prim?rsystem--><g id="elem_Prim&#228;rsystem"><rect fill="#F1F1F1" height="92.5938" rx="5" ry="5" style="stroke:#181818;stroke-width:1.0;" width="278" x="44" y="296"/><rect fill="#F1F1F1" height="20" style="stroke:#181818;stroke-width:1.0;" width="30" x="282" y="306"/><rect fill="#F1F1F1" height="4" style="stroke:#181818;stroke-width:1.0;" width="8" x="278" y="310"/><rect fill="#F1F1F1" height="4" style="stroke:#181818;stroke-width:1.0;" width="8" x="278" y="318"/><text fill="#000000" font-family="sans-serif" font-size="28" lengthAdjust="spacing" textLength="198" x="74" y="361.9902">Prim&#228;rsystem</text></g><!--entity POP3-Proxy\n&#91;KIM-Clientmodul&#93;--><g id="elem_POP3-Proxy\n&amp;#91;KIM-Clientmodul&amp;#93;"><rect fill="#F1F1F1" height="125.1875" rx="5" ry="5" style="stroke:#181818;stroke-width:1.0;" width="338" x="508" y="475"/><rect fill="#F1F1F1" height="20" style="stroke:#181818;stroke-width:1.0;" width="30" x="806" y="485"/><rect fill="#F1F1F1" height="4" style="stroke:#181818;stroke-width:1.0;" width="8" x="802" y="489"/><rect fill="#F1F1F1" height="4" style="stroke:#181818;stroke-width:1.0;" width="8" x="802" y="497"/><text fill="#000000" font-family="sans-serif" font-size="28" lengthAdjust="spacing" textLength="168" x="538" y="540.9902">POP3-Proxy</text><text fill="#000000" font-family="sans-serif" font-size="28" lengthAdjust="spacing" textLength="258" x="538" y="573.584">[KIM-Clientmodul]</text></g><!--entity SMTP-Proxy\n&#91;KIM-Clientmodul&#93;--><g id="elem_SMTP-Proxy\n&amp;#91;KIM-Clientmodul&amp;#93;"><rect fill="#F1F1F1" height="125.1875" rx="5" ry="5" style="stroke:#181818;stroke-width:1.0;" width="338" x="508" y="279"/><rect fill="#F1F1F1" height="20" style="stroke:#181818;stroke-width:1.0;" width="30" x="806" y="289"/><rect fill="#F1F1F1" height="4" style="stroke:#181818;stroke-width:1.0;" width="8" x="802" y="293"/><rect fill="#F1F1F1" height="4" style="stroke:#181818;stroke-width:1.0;" width="8" x="802" y="301"/><text fill="#000000" font-family="sans-serif" font-size="28" lengthAdjust="spacing" textLength="170" x="538" y="344.9902">SMTP-Proxy</text><text fill="#000000" font-family="sans-serif" font-size="28" lengthAdjust="spacing" textLength="258" x="538" y="377.584">[KIM-Clientmodul]</text></g><!--entity LDAPv3-Proxy\n&#91;Konnektor&#93;--><g id="elem_LDAPv3-Proxy\n&amp;#91;Konnektor&amp;#93;"><rect fill="#F1F1F1" height="125.1875" rx="5" ry="5" style="stroke:#181818;stroke-width:1.0;" width="282" x="536" y="83"/><rect fill="#F1F1F1" height="20" style="stroke:#181818;stroke-width:1.0;" width="30" x="778" y="93"/><rect fill="#F1F1F1" height="4" style="stroke:#181818;stroke-width:1.0;" width="8" x="774" y="97"/><rect fill="#F1F1F1" height="4" style="stroke:#181818;stroke-width:1.0;" width="8" x="774" y="105"/><text fill="#000000" font-family="sans-serif" font-size="28" lengthAdjust="spacing" textLength="202" x="566" y="148.9902">LDAPv3-Proxy</text><text fill="#000000" font-family="sans-serif" font-size="28" lengthAdjust="spacing" textLength="174" x="566" y="181.584">[Konnektor]</text></g><!--entity Verzeichnisdienst--><g id="elem_Verzeichnisdienst"><rect fill="#F1F1F1" height="92.5938" rx="5" ry="5" style="stroke:#181818;stroke-width:1.0;" width="336" x="1032" y="164"/><rect fill="#F1F1F1" height="20" style="stroke:#181818;stroke-width:1.0;" width="30" x="1328" y="174"/><rect fill="#F1F1F1" height="4" style="stroke:#181818;stroke-width:1.0;" width="8" x="1324" y="178"/><rect fill="#F1F1F1" height="4" style="stroke:#181818;stroke-width:1.0;" width="8" x="1324" y="186"/><text fill="#000000" font-family="sans-serif" font-size="28" lengthAdjust="spacing" textLength="256" x="1062" y="229.9902">Verzeichnisdienst</text></g><!--entity KIM-Provider--><g id="elem_KIM-Provider"><rect fill="#F1F1F1" height="92.5938" rx="5" ry="5" style="stroke:#181818;stroke-width:1.0;" width="264" x="1068" y="414"/><rect fill="#F1F1F1" height="20" style="stroke:#181818;stroke-width:1.0;" width="30" x="1292" y="424"/><rect fill="#F1F1F1" height="4" style="stroke:#181818;stroke-width:1.0;" width="8" x="1288" y="428"/><rect fill="#F1F1F1" height="4" style="stroke:#181818;stroke-width:1.0;" width="8" x="1288" y="436"/><text fill="#000000" font-family="sans-serif" font-size="28" lengthAdjust="spacing" textLength="184" x="1098" y="479.9902">KIM-Provider</text></g><!--link Prim?rsystem to POP3-Proxy\n&#91;KIM-Clientmodul&#93;--><g id="link_Prim&#228;rsystem_POP3-Proxy\n&amp;#91;KIM-Clientmodul&amp;#93;"><path d="M300.502,388.202 C365.014,414.006 435.1902,442.0774 505.5562,470.2228 " fill="none" id="Prim&#228;rsystem-to-POP3-Proxy\n&amp;#91;KIM-Clientmodul&amp;#93;" style="stroke:#000000;stroke-width:2.0;stroke-dasharray:7.0,7.0;"/><polygon fill="#000000" points="516.698,474.6794,502.9564,460.5667,507.4132,470.9656,497.0143,475.4224,516.698,474.6794" style="stroke:#000000;stroke-width:2.0;"/><text fill="#000000" font-family="sans-serif" font-size="34" lengthAdjust="spacing" textLength="62" x="384" y="413.5596">use</text></g><!--link Prim?rsystem to SMTP-Proxy\n&#91;KIM-Clientmodul&#93;--><g id="link_Prim&#228;rsystem_SMTP-Proxy\n&amp;#91;KIM-Clientmodul&amp;#93;"><path d="M322.144,342 C379.618,342 434.986,342 495.368,342 " fill="none" id="Prim&#228;rsystem-to-SMTP-Proxy\n&amp;#91;KIM-Clientmodul&amp;#93;" style="stroke:#000000;stroke-width:2.0;stroke-dasharray:7.0,7.0;"/><polygon fill="#000000" points="507.368,342,489.368,334,497.368,342,489.368,350,507.368,342" style="stroke:#000000;stroke-width:2.0;"/><text fill="#000000" font-family="sans-serif" font-size="34" lengthAdjust="spacing" textLength="62" x="384" y="333.5596">use</text></g><!--link Prim?rsystem to LDAPv3-Proxy\n&#91;Konnektor&#93;--><g id="link_Prim&#228;rsystem_LDAPv3-Proxy\n&amp;#91;Konnektor&amp;#93;"><path d="M300.502,295.798 C370.954,267.618 450.3143,235.8746 524.7003,206.1206 " fill="none" id="Prim&#228;rsystem-to-LDAPv3-Proxy\n&amp;#91;Konnektor&amp;#93;" style="stroke:#000000;stroke-width:2.0;stroke-dasharray:7.0,7.0;"/><polygon fill="#000000" points="535.842,201.664,516.1583,200.9211,526.5572,205.3779,522.1005,215.7768,535.842,201.664" style="stroke:#000000;stroke-width:2.0;"/><text fill="#000000" font-family="sans-serif" font-size="34" lengthAdjust="spacing" textLength="62" x="384" y="229.5596">use</text></g><!--link LDAPv3-Proxy\n&#91;Konnektor&#93; to Verzeichnisdienst--><g id="link_LDAPv3-Proxy\n&amp;#91;Konnektor&amp;#93;_Verzeichnisdienst"><path d="M818.082,163.15 C883.84,171.26 950.9423,179.533 1019.8403,188.031 " fill="none" id="LDAPv3-Proxy\n&amp;#91;Konnektor&amp;#93;-to-Verzeichnisdienst" style="stroke:#000000;stroke-width:2.0;stroke-dasharray:7.0,7.0;"/><polygon fill="#000000" points="1031.75,189.5,1014.8647,179.3567,1021.8252,188.2759,1012.9061,195.2364,1031.75,189.5" style="stroke:#000000;stroke-width:2.0;"/><text fill="#000000" font-family="sans-serif" font-size="34" lengthAdjust="spacing" textLength="62" x="908" y="165.5596">use</text></g><!--link SMTP-Proxy\n&#91;KIM-Clientmodul&#93; to Verzeichnisdienst--><g id="link_SMTP-Proxy\n&amp;#91;KIM-Clientmodul&amp;#93;_Verzeichnisdienst"><path d="M846.072,299.508 C905.338,284.434 960.3723,270.4381 1019.6123,255.3701 " fill="none" id="SMTP-Proxy\n&amp;#91;KIM-Clientmodul&amp;#93;-to-Verzeichnisdienst" style="stroke:#000000;stroke-width:2.0;stroke-dasharray:7.0,7.0;"/><polygon fill="#000000" points="1031.242,252.412,1011.8254,249.096,1021.5506,254.8771,1015.7695,264.6022,1031.242,252.412" style="stroke:#000000;stroke-width:2.0;"/><text fill="#000000" font-family="sans-serif" font-size="34" lengthAdjust="spacing" textLength="62" x="908" y="259.5596">use</text></g><!--link POP3-Proxy\n&#91;KIM-Clientmodul&#93; to KIM-Provider--><g id="link_POP3-Proxy\n&amp;#91;KIM-Clientmodul&amp;#93;_KIM-Provider"><path d="M846.26,536.5968 C887.554,534.4422 931.54,530.6064 972,524 C1003.392,518.8742 1025.0663,514.1226 1056.1183,505.5542 " fill="none" id="POP3-Proxy\n&amp;#91;KIM-Clientmodul&amp;#93;-to-KIM-Provider" style="stroke:#000000;stroke-width:2.0;stroke-dasharray:7.0,7.0;"/><polygon fill="#000000" points="1067.686,502.3622,1048.2065,499.4383,1058.0463,505.0222,1052.4624,514.8619,1067.686,502.3622" style="stroke:#000000;stroke-width:2.0;"/><text fill="#000000" font-family="sans-serif" font-size="34" lengthAdjust="spacing" textLength="62" x="908" y="515.5596">use</text></g><!--link SMTP-Proxy\n&#91;KIM-Clientmodul&#93; to KIM-Provider--><g id="link_SMTP-Proxy\n&amp;#91;KIM-Clientmodul&amp;#93;_KIM-Provider"><path d="M846.138,385.662 C866.274,390.64 886.578,395.526 906,400 C958.702,412.14 1005.2717,421.9895 1055.8557,432.2095 " fill="none" id="SMTP-Proxy\n&amp;#91;KIM-Clientmodul&amp;#93;-to-KIM-Provider" style="stroke:#000000;stroke-width:2.0;stroke-dasharray:7.0,7.0;"/><polygon fill="#000000" points="1067.618,434.586,1051.5588,423.1798,1057.8161,432.6056,1048.3902,438.8629,1067.618,434.586" style="stroke:#000000;stroke-width:2.0;"/><text fill="#000000" font-family="sans-serif" font-size="34" lengthAdjust="spacing" textLength="62" x="908" y="391.5596">use</text></g><!--SRC=[fL9TRzD047o_Nt5I9VgKX101Waf8RYfGHD9OSkXBwSFMthYhdFV2tJaVhVfl-a_uOwoT0iQaLGGlbZqpEvvTJUzO7UdFeudkTrztD_8UEoe0dT_wW8L12dF8a8Nuub4FGHvd1Bc3Gg28ryXPoRcV0ng3whYdbF8BuYM8GaCQh4l2rg26DNfRe38u3pfOxIY_2JeZXsaWoygd8AetlK5ptkEt4Zb5VQSYv-nwQ8rr-jf0kjW17os7X6vHzz-ggFhPgNKPkgPkJ7CS4-CpZ7papfQSxTXFGEolhRDAnU02fRG43itvYGsqWZftKz7osQ-g8fz3WNfKBEK-RQhUvjNBDjpC_KIeqx_8TfxfR7GHpKRJS_Luh2SNh-dsVt-1kuiFVWFrFX4iSQFkbMorW1nrajumXI0racPmd7IgbjsfowfWtnyU2tQbkzqF-ZAUneDExEnc-vLV7BthduYsCpI470gRbKQmmScLVbzwt6-GJ6RnVncCpw9urSfWcN4XA_unV82mDhn0TujKtS1d4iE7dmO7HdtUvC23rIOL9T8LILN-9SIU-ViV]--></g></svg>