<?xml version="1.0" encoding="us-ascii" standalone="no"?><svg xmlns="http://www.w3.org/2000/svg" xmlns:xlink="http://www.w3.org/1999/xlink" contentStyleType="text/css" height="699px" preserveAspectRatio="none" style="width:413px;height:699px;background:#FFFFFF;" version="1.1" viewBox="0 0 413 699" width="413px" zoomAndPan="magnify"><defs/><g><g id="rkm"><rect fill="#F1F1F1" height="78.2031" rx="12.5" ry="12.5" style="stroke:#181818;stroke-width:0.5;" width="316" x="48.5" y="103"/><line style="stroke:#181818;stroke-width:0.5;" x1="48.5" x2="364.5" y1="129.2969" y2="129.2969"/><text fill="#000000" font-family="sans-serif" font-size="14" lengthAdjust="spacing" textLength="175" x="119" y="120.9951">KOM-LE Mail empfangen</text><text fill="#000000" font-family="sans-serif" font-size="12" lengthAdjust="spacing" textLength="220" x="53.5" y="145.4355">do / Entschl&#252;sselung des Mail Bodys</text><text fill="#000000" font-family="sans-serif" font-size="12" lengthAdjust="spacing" textLength="150" x="53.5" y="159.4043">do / Pr&#252;fung der Signatur</text><text fill="#000000" font-family="sans-serif" font-size="12" lengthAdjust="spacing" textLength="296" x="53.5" y="173.373">exit / Entschl&#252;sselung erfolgreich abgeschlossen</text></g><g id="dkm"><rect fill="#F1F1F1" height="78.2031" rx="12.5" ry="12.5" style="stroke:#181818;stroke-width:0.5;" width="276" x="68.5" y="242"/><line style="stroke:#181818;stroke-width:0.5;" x1="68.5" x2="344.5" y1="268.2969" y2="268.2969"/><text fill="#000000" font-family="sans-serif" font-size="14" lengthAdjust="spacing" textLength="174" x="119.5" y="259.9951">KOM-LE Mail prozessiert</text><text fill="#000000" font-family="sans-serif" font-size="12" lengthAdjust="spacing" textLength="256" x="73.5" y="284.4355">do / Auslesen der KIM-Attachment Struktur</text><text fill="#000000" font-family="sans-serif" font-size="12" lengthAdjust="spacing" textLength="211" x="73.5" y="298.4043">do / Binary vom KAS herunterladen</text><text fill="#000000" font-family="sans-serif" font-size="12" lengthAdjust="spacing" textLength="164" x="73.5" y="312.373">exit / Download erfolgreich</text></g><g id="kdcm"><rect fill="#F1F1F1" height="106.1406" rx="12.5" ry="12.5" style="stroke:#181818;stroke-width:0.5;" width="399" x="7" y="381"/><line style="stroke:#181818;stroke-width:0.5;" x1="7" x2="406" y1="407.2969" y2="407.2969"/><text fill="#000000" font-family="sans-serif" font-size="14" lengthAdjust="spacing" textLength="201" x="106" y="398.9951">Client-Mail heruntergeladen</text><text fill="#000000" font-family="sans-serif" font-size="12" lengthAdjust="spacing" textLength="314" x="12" y="423.4355">do / Pr&#252;fen der Signatur der heruntergeladenen Mail</text><text fill="#000000" font-family="sans-serif" font-size="12" lengthAdjust="spacing" textLength="296" x="12" y="437.4043">do / Entschl&#252;sselung der heruntergeladenen mail</text><text fill="#000000" font-family="sans-serif" font-size="12" lengthAdjust="spacing" textLength="134" x="12" y="451.373">do / Integrit&#228;tspr&#252;fung</text><text fill="#000000" font-family="sans-serif" font-size="12" lengthAdjust="spacing" textLength="379" x="12" y="465.3418">do / Nachverarbeitung (z.B. hinzuf&#252;gen der KIM-header Felder)</text><text fill="#000000" font-family="sans-serif" font-size="12" lengthAdjust="spacing" textLength="236" x="12" y="479.3105">exit / Nachverarbeitung abgeschlossen</text></g><g id="cm"><rect fill="#F1F1F1" height="64.2344" rx="12.5" ry="12.5" style="stroke:#181818;stroke-width:0.5;" width="346" x="33.5" y="548"/><line style="stroke:#181818;stroke-width:0.5;" x1="33.5" x2="379.5" y1="574.2969" y2="574.2969"/><text fill="#000000" font-family="sans-serif" font-size="14" lengthAdjust="spacing" textLength="149" x="132" y="565.9951">Client-Mail finalisiert</text><text fill="#000000" font-family="sans-serif" font-size="12" lengthAdjust="spacing" textLength="326" x="38.5" y="590.4355">do / &#220;bermittlung der Client-Mail an das Client-System</text><text fill="#000000" font-family="sans-serif" font-size="12" lengthAdjust="spacing" textLength="277" x="38.5" y="604.4043">exit / &#220;bermittlung erfolgreich abgeschlossen</text></g><ellipse cx="206.5" cy="16" fill="#181818" rx="10" ry="10" style="stroke:none;stroke-width:1.0;"/><ellipse cx="206.5" cy="683" fill="none" rx="10" ry="10" style="stroke:#181818;stroke-width:1.0;"/><ellipse cx="207" cy="683.5" fill="#181818" rx="6" ry="6" style="stroke:none;stroke-width:1.0;"/><!--link *start* to rkm--><g id="link_*start*_rkm"><path d="M206.5,26.32 C206.5,42.372 206.5,70.087 206.5,96.828 " fill="none" id="*start*-to-rkm" style="stroke:#181818;stroke-width:1.0;"/><polygon fill="#181818" points="206.5,102.828,210.5,93.828,206.5,97.828,202.5,93.828,206.5,102.828" style="stroke:#181818;stroke-width:1.0;"/><text fill="#000000" font-family="sans-serif" font-size="13" lengthAdjust="spacing" textLength="179" x="207.5" y="69.0669">POP3 Abruf vom Fachdienst</text></g><!--link rkm to dkm--><g id="link_rkm_dkm"><path d="M206.5,181.162 C206.5,200.006 206.5,216.687 206.5,235.567 " fill="none" id="rkm-to-dkm" style="stroke:#181818;stroke-width:1.0;"/><polygon fill="#181818" points="206.5,241.567,210.5,232.567,206.5,236.567,202.5,232.567,206.5,241.567" style="stroke:#181818;stroke-width:1.0;"/></g><!--link dkm to kdcm--><g id="link_dkm_kdcm"><path d="M206.5,320.104 C206.5,338.538 206.5,354.952 206.5,374.935 " fill="none" id="dkm-to-kdcm" style="stroke:#181818;stroke-width:1.0;"/><polygon fill="#181818" points="206.5,380.935,210.5,371.935,206.5,375.935,202.5,371.935,206.5,380.935" style="stroke:#181818;stroke-width:1.0;"/></g><!--link kdcm to cm--><g id="link_kdcm_cm"><path d="M206.5,487.395 C206.5,507.66 206.5,524.167 206.5,541.801 " fill="none" id="kdcm-to-cm" style="stroke:#181818;stroke-width:1.0;"/><polygon fill="#181818" points="206.5,547.801,210.5,538.801,206.5,542.801,202.5,538.801,206.5,547.801" style="stroke:#181818;stroke-width:1.0;"/></g><!--link cm to *end*--><g id="link_cm_*end*"><path d="M206.5,612.1275 C206.5,632.9935 206.5,653.0606 206.5,666.6989 " fill="none" id="cm-to-*end*" style="stroke:#181818;stroke-width:1.0;"/><polygon fill="#181818" points="206.5,672.6989,210.5,663.6989,206.5,667.6989,202.5,663.6989,206.5,672.6989" style="stroke:#181818;stroke-width:1.0;"/></g><!--SRC=[VLBBJkj03DttAonMW1H0mEAA1LBBGqAbKAdBAnRJZ9ECEfbK7WTeluNb_OpkycFNUJGC4B58CevzZiySsyVA8kJg7SxFBl_0cz6SZKQU5ICSJ9zdqUCTp9InWFawKIv5Tm3A0wtoaJnNe0iuXJl7FivijVCURUbIqEXRrAJG6nzKpgdQ9Mq5mSAaJd59RHxV3Gzn8IM5JGbDd85QfbXd2qcwGPbhAhRelK7YHgWMeRflFowzHO4sxQSFisZChE8iHyUmO2fNjPhFyebnYZRmMkGm7IyWGoeT8rcbfRiEHDyMRyuMIeTYUtatrWX_rCZRKwJOa3GILphEH_KhzAZJkBUe2Rw1fQJc3A43WnY2vTzW3v9EoN3rZ_swcr2OVnAFNf4KBT5mJNkuFPcSG6RSjaogNHeOcg6gZ_TevNFKaNGk_Q0P7cVeLo8JiEPpdE9KhwhwM2BbXhc_QOXKeaa0tQ_5nZEss4xCL_GlI_Rt-0KY7LtNEmzNC7-UNy1uIMNIxCMzt4bB2y_r5hU5tSwrGJ_TDcmkq1w5-3y0]--></g></svg>