<?xml version="1.0" encoding="us-ascii" standalone="no"?><svg xmlns="http://www.w3.org/2000/svg" xmlns:xlink="http://www.w3.org/1999/xlink" contentStyleType="text/css" height="699px" preserveAspectRatio="none" style="width:422px;height:699px;background:#FFFFFF;" version="1.1" viewBox="0 0 422 699" width="422px" zoomAndPan="magnify"><defs/><g><g id="rkm"><rect fill="#F1F1F1" height="78.2031" rx="12.5" ry="12.5" style="stroke:#181818;stroke-width:0.5;" width="327" x="47.5" y="103"/><line style="stroke:#181818;stroke-width:0.5;" x1="47.5" x2="374.5" y1="129.2969" y2="129.2969"/><text fill="#000000" font-family="sans-serif" font-size="14" lengthAdjust="spacing" textLength="166" x="128" y="120.9951">KOM-LE Mail empfangen</text><text fill="#000000" font-family="sans-serif" font-size="12" lengthAdjust="spacing" textLength="227" x="52.5" y="145.4355">do / Entschl&#252;sselung des Mail Bodys</text><text fill="#000000" font-family="sans-serif" font-size="12" lengthAdjust="spacing" textLength="159" x="52.5" y="159.4043">do / Pr&#252;fung der Signatur</text><text fill="#000000" font-family="sans-serif" font-size="12" lengthAdjust="spacing" textLength="307" x="52.5" y="173.373">exit / Entschl&#252;sselung erfolgreich abgeschlossen</text></g><g id="dkm"><rect fill="#F1F1F1" height="78.2031" rx="12.5" ry="12.5" style="stroke:#181818;stroke-width:0.5;" width="286" x="68" y="242"/><line style="stroke:#181818;stroke-width:0.5;" x1="68" x2="354" y1="268.2969" y2="268.2969"/><text fill="#000000" font-family="sans-serif" font-size="14" lengthAdjust="spacing" textLength="165" x="128.5" y="259.9951">KOM-LE Mail prozessiert</text><text fill="#000000" font-family="sans-serif" font-size="12" lengthAdjust="spacing" textLength="266" x="73" y="284.4355">do / Auslesen der KIM-Attachment Struktur</text><text fill="#000000" font-family="sans-serif" font-size="12" lengthAdjust="spacing" textLength="216" x="73" y="298.4043">do / Binary vom KAS herunterladen</text><text fill="#000000" font-family="sans-serif" font-size="12" lengthAdjust="spacing" textLength="166" x="73" y="312.373">exit / Download erfolgreich</text></g><g id="kdcm"><rect fill="#F1F1F1" height="106.1406" rx="12.5" ry="12.5" style="stroke:#181818;stroke-width:0.5;" width="408" x="7" y="381"/><line style="stroke:#181818;stroke-width:0.5;" x1="7" x2="415" y1="407.2969" y2="407.2969"/><text fill="#000000" font-family="sans-serif" font-size="14" lengthAdjust="spacing" textLength="190" x="116" y="398.9951">Client-Mail heruntergeladen</text><text fill="#000000" font-family="sans-serif" font-size="12" lengthAdjust="spacing" textLength="352" x="12" y="423.4355">do / Entschl&#252;sselung der heruntergeladenen Mail-Daten</text><text fill="#000000" font-family="sans-serif" font-size="12" lengthAdjust="spacing" textLength="330" x="12" y="437.4043">do / Pr&#252;fen der Signatur der heruntergeladenen Mail</text><text fill="#000000" font-family="sans-serif" font-size="12" lengthAdjust="spacing" textLength="142" x="12" y="451.373">do / Integrit&#228;tspr&#252;fung</text><text fill="#000000" font-family="sans-serif" font-size="12" lengthAdjust="spacing" textLength="388" x="12" y="465.3418">do / Nachverarbeitung (z.B. hinzuf&#252;gen der KIM-header Felder)</text><text fill="#000000" font-family="sans-serif" font-size="12" lengthAdjust="spacing" textLength="245" x="12" y="479.3105">exit / Nachverarbeitung abgeschlossen</text></g><g id="cm"><rect fill="#F1F1F1" height="64.2344" rx="12.5" ry="12.5" style="stroke:#181818;stroke-width:0.5;" width="356" x="33" y="548"/><line style="stroke:#181818;stroke-width:0.5;" x1="33" x2="389" y1="574.2969" y2="574.2969"/><text fill="#000000" font-family="sans-serif" font-size="14" lengthAdjust="spacing" textLength="134" x="144" y="565.9951">Client-Mail finalisiert</text><text fill="#000000" font-family="sans-serif" font-size="12" lengthAdjust="spacing" textLength="336" x="38" y="590.4355">do / &#220;bermittlung der Client-Mail an das Client-System</text><text fill="#000000" font-family="sans-serif" font-size="12" lengthAdjust="spacing" textLength="285" x="38" y="604.4043">exit / &#220;bermittlung erfolgreich abgeschlossen</text></g><ellipse cx="211" cy="16" fill="#181818" rx="10" ry="10" style="stroke:none;stroke-width:1.0;"/><ellipse cx="211" cy="683" fill="none" rx="10" ry="10" style="stroke:#181818;stroke-width:1.0;"/><ellipse cx="211.5" cy="683.5" fill="#181818" rx="6" ry="6" style="stroke:none;stroke-width:1.0;"/><!--link *start* to rkm--><g id="link_*start*_rkm"><path d="M211,26.32 C211,41.37 211,71.94 211,97.74 " fill="none" id="*start*-to-rkm" style="stroke:#181818;stroke-width:1.0;"/><polygon fill="#181818" points="211,102.83,215,93.83,211,97.83,207,93.83,211,102.83" style="stroke:#181818;stroke-width:1.0;"/><text fill="#000000" font-family="sans-serif" font-size="13" lengthAdjust="spacing" textLength="177" x="212" y="69.0669">POP3 Abruf vom Fachdienst</text></g><!--link rkm to dkm--><g id="link_rkm_dkm"><path d="M211,181.16 C211,198.24 211,218.47 211,236.16 " fill="none" id="rkm-to-dkm" style="stroke:#181818;stroke-width:1.0;"/><polygon fill="#181818" points="211,241.57,215,232.57,211,236.57,207,232.57,211,241.57" style="stroke:#181818;stroke-width:1.0;"/></g><!--link dkm to kdcm--><g id="link_dkm_kdcm"><path d="M211,320.1 C211,336.95 211,357.13 211,375.73 " fill="none" id="dkm-to-kdcm" style="stroke:#181818;stroke-width:1.0;"/><polygon fill="#181818" points="211,380.94,215,371.94,211,375.94,207,371.94,211,380.94" style="stroke:#181818;stroke-width:1.0;"/></g><!--link kdcm to cm--><g id="link_kdcm_cm"><path d="M211,487.39 C211,505.76 211,525.97 211,542.72 " fill="none" id="kdcm-to-cm" style="stroke:#181818;stroke-width:1.0;"/><polygon fill="#181818" points="211,547.8,215,538.8,211,542.8,207,538.8,211,547.8" style="stroke:#181818;stroke-width:1.0;"/></g><!--link cm to *end*--><g id="link_cm_*end*"><path d="M211,612.13 C211,630.55 211,653.02 211,667.42 " fill="none" id="cm-to-*end*" style="stroke:#181818;stroke-width:1.0;"/><polygon fill="#181818" points="211,672.7,215,663.7,211,667.7,207,663.7,211,672.7" style="stroke:#181818;stroke-width:1.0;"/></g><!--SRC=[VL9DJ-D03BtdLrYS5gImgrqEYCDABIqIAeLAFQ8zJ3DECkfaKdaSeFqj7FaPlUMFuNmGXgLmI38J-pq_FzidoY8KwWb-_pexXqUZEOyYpueHZcPty_Xc2dDbB62nIPNBq1s1ya3h8fBd0dG9Fs7gs2UvhVVUewrS1XfzXngNUkk3p0NL-xJB85YQp2ckg8lZa-53N4XfQJD2a-IWLXasqLA2xg3C3PKxzDuWSIjKYr0zb1zLtg90s_ApwtayObP9Ng1ZM39LwqRDU_hOE4LRU2WBc8sMa2DLZf6iqb9T1w8dvQEpfTAXs47UfJN27xVotYWoR4bQYMkT557p-jfD-XyeBJHyyKGgk13S6jmt-ERlDmGXz5h26HckNzXl-Zc5yLjnwW59qGeDDxf-x4x7fv0RjwlIUfy5jkQeckCLMlaSzoIzLvze3WyrT2sLELZpFbJnQr1LFw-G2iCyM1KYbMWIGFzhkVMC7RONyn7zpQhTd_o3MCT_cys72rZSBVx0Q4LLscx7bVIafOJdPfUxn7xpkiimu-xQDj0TXJXw1G00]--></g></svg>