<?xml version="1.0" encoding="us-ascii" standalone="no"?><svg xmlns="http://www.w3.org/2000/svg" xmlns:xlink="http://www.w3.org/1999/xlink" contentStyleType="text/css" height="713px" preserveAspectRatio="none" style="width:604px;height:713px;background:#FFFFFF;" version="1.1" viewBox="0 0 604 713" width="604px" zoomAndPan="magnify"><defs/><g><g id="cm"><rect fill="#F1F1F1" height="64.2344" rx="12.5" ry="12.5" style="stroke:#181818;stroke-width:0.5;" width="173" x="215.5" y="87"/><line style="stroke:#181818;stroke-width:0.5;" x1="215.5" x2="388.5" y1="113.2969" y2="113.2969"/><text fill="#000000" font-family="sans-serif" font-size="14" lengthAdjust="spacing" textLength="153" x="225.5" y="104.9951">Client-Mail empfangen</text><text fill="#000000" font-family="sans-serif" font-size="12" lengthAdjust="spacing" textLength="142" x="220.5" y="129.4355">do / decodiere Base64</text><text fill="#000000" font-family="sans-serif" font-size="12" lengthAdjust="spacing" textLength="145" x="220.5" y="143.4043">exit / finished decoding</text></g><g id="dcm"><rect fill="#F1F1F1" height="92.1719" rx="12.5" ry="12.5" style="stroke:#181818;stroke-width:0.5;" width="327" x="138.5" y="212"/><line style="stroke:#181818;stroke-width:0.5;" x1="138.5" x2="465.5" y1="238.2969" y2="238.2969"/><text fill="#000000" font-family="sans-serif" font-size="14" lengthAdjust="spacing" textLength="152" x="226" y="229.9951">Client-Mail prozessiert</text><text fill="#000000" font-family="sans-serif" font-size="12" lengthAdjust="spacing" textLength="142" x="143.5" y="254.4355">do / Integrit&#228;tspr&#252;fung</text><text fill="#000000" font-family="sans-serif" font-size="12" lengthAdjust="spacing" textLength="162" x="143.5" y="268.4043">do / Mailgr&#246;&#223;e bestimmen</text><text fill="#000000" font-family="sans-serif" font-size="12" lengthAdjust="spacing" textLength="169" x="143.5" y="282.373">do / KIM header hinzuf&#252;gen</text><text fill="#000000" font-family="sans-serif" font-size="12" lengthAdjust="spacing" textLength="307" x="143.5" y="296.3418">exit / Verarbeitung der Client Mail abgeschlossen</text></g><g id="cmcm"><rect fill="#F1F1F1" height="106.1406" rx="12.5" ry="12.5" style="stroke:#181818;stroke-width:0.5;" width="585" x="9.5" y="365"/><line style="stroke:#181818;stroke-width:0.5;" x1="9.5" x2="594.5" y1="391.2969" y2="391.2969"/><text fill="#000000" font-family="sans-serif" font-size="14" lengthAdjust="spacing" textLength="165" x="219.5" y="382.9951">Client-Mail hochgeladen</text><text fill="#000000" font-family="sans-serif" font-size="12" lengthAdjust="spacing" textLength="470" x="14.5" y="407.4355">do / erstelle Kopie der prozessierten Client-Mal als Basis f&#252;r die KOM-LE Mail</text><text fill="#000000" font-family="sans-serif" font-size="12" lengthAdjust="spacing" textLength="366" x="14.5" y="421.4043">do / signiere und verschl&#252;ssele die prozessierte Client-Mail</text><text fill="#000000" font-family="sans-serif" font-size="12" lengthAdjust="spacing" textLength="333" x="14.5" y="435.373">do / upload des verschl&#252;sselten Binaries auf den KAS</text><text fill="#000000" font-family="sans-serif" font-size="12" lengthAdjust="spacing" textLength="565" x="14.5" y="449.3418">do / ersetze den Mail body in der Basis f&#252;r die KOM-LE Mail mit der KIM-Attachment Struktur</text><text fill="#000000" font-family="sans-serif" font-size="12" lengthAdjust="spacing" textLength="199" x="14.5" y="463.3105">exit / initiale KOM-LE Mail erstellt</text></g><g id="ckm"><rect fill="#F1F1F1" height="78.2031" rx="12.5" ry="12.5" style="stroke:#181818;stroke-width:0.5;" width="590" x="7" y="532"/><line style="stroke:#181818;stroke-width:0.5;" x1="7" x2="597" y1="558.2969" y2="558.2969"/><text fill="#000000" font-family="sans-serif" font-size="14" lengthAdjust="spacing" textLength="147" x="228.5" y="549.9951">KOM-LE Mail finalisiert</text><text fill="#000000" font-family="sans-serif" font-size="12" lengthAdjust="spacing" textLength="570" x="12" y="574.4355">do / hinzuf&#252;gen der Header mit Versionsinformationen(Konnektor, Clientmodul, Produkttyp)</text><text fill="#000000" font-family="sans-serif" font-size="12" lengthAdjust="spacing" textLength="277" x="12" y="588.4043">do / signiere und verschl&#252;ssle den Mail Body</text><text fill="#000000" font-family="sans-serif" font-size="12" lengthAdjust="spacing" textLength="192" x="12" y="602.373">exit / finale KOM-LE Mail erstellt</text></g><ellipse cx="302" cy="16" fill="#181818" rx="10" ry="10" style="stroke:none;stroke-width:1.0;"/><ellipse cx="302" cy="697" fill="none" rx="10" ry="10" style="stroke:#181818;stroke-width:1.0;"/><ellipse cx="302.5" cy="697.5" fill="#181818" rx="6" ry="6" style="stroke:none;stroke-width:1.0;"/><!--link *start* to cm--><g id="link_*start*_cm"><path d="M302,26.32 C302,38.78 302,61.6 302,81.35 " fill="none" id="*start*-to-cm" style="stroke:#181818;stroke-width:1.0;"/><polygon fill="#181818" points="302,86.56,306,77.56,302,81.56,298,77.56,302,86.56" style="stroke:#181818;stroke-width:1.0;"/></g><!--link cm to dcm--><g id="link_cm_dcm"><path d="M302,151.09 C302,167.47 302,187.97 302,206.55 " fill="none" id="cm-to-dcm" style="stroke:#181818;stroke-width:1.0;"/><polygon fill="#181818" points="302,211.74,306,202.74,302,206.74,298,202.74,302,211.74" style="stroke:#181818;stroke-width:1.0;"/></g><!--link dcm to cmcm--><g id="link_dcm_cmcm"><path d="M302,304.28 C302,321.53 302,341.43 302,359.66 " fill="none" id="dcm-to-cmcm" style="stroke:#181818;stroke-width:1.0;"/><polygon fill="#181818" points="302,364.75,306,355.75,302,359.75,298,355.75,302,364.75" style="stroke:#181818;stroke-width:1.0;"/></g><!--link cmcm to ckm--><g id="link_cmcm_ckm"><path d="M302,471.39 C302,489.45 302,509.47 302,526.72 " fill="none" id="cmcm-to-ckm" style="stroke:#181818;stroke-width:1.0;"/><polygon fill="#181818" points="302,531.98,306,522.98,302,526.98,298,522.98,302,531.98" style="stroke:#181818;stroke-width:1.0;"/></g><!--link ckm to *end*--><g id="link_ckm_*end*"><path d="M302,610.22 C302,634.38 302,664.23 302,681.59 " fill="none" id="ckm-to-*end*" style="stroke:#181818;stroke-width:1.0;"/><polygon fill="#181818" points="302,686.98,306,677.98,302,681.98,298,677.98,302,686.98" style="stroke:#181818;stroke-width:1.0;"/><text fill="#000000" font-family="sans-serif" font-size="13" lengthAdjust="spacing" textLength="174" x="303" y="653.0669">Versand an den Fachdienst</text></g><!--SRC=[TLF1ZjCm4BttAqPx0hGH2AqGsWFI5e5ObGgabRYWFRZn91dLiIDx0hlz6Ivy0wVUycEC7RSrQ7k84cTctdlpPXngPH1wzG2lNrszXP-akLii0Yj6k7Xl22rNQqK6i1yQPLkq5w02rFsYxk4Qj8ENeB5scj0ZB5N0DrTp21-89TYGfT2XpbcsVH9zy6w78GW89tmj1F9aWblBs7hYwJU7mK_xPXIOKpWYj7xwC_r2s61WwdkqHNnrkuOEbKOF7TdTs4pxzf2GLNv3h_m6YGKPOk8iBa63shGOwiwu4AJiAVcTgxiMZL0Sx4a67HMW3un6Z5wvWJ0H51sZXIEOi9aGVQG0ejE360khB-lgyuSafaGDrDfa-sWr_10EqJZjHQGGnRAI0Wgv9SOu6AVYSCA_257Kagpo914rDf9XONLpzrzNo3jCeMJ3nkb789lwEzy2z69vJ96vL3VCgkxwwFKT-t7BeyyKUJAoFannHqk4x2SVXr46PUEKeTCkrLkPnVOWkjY09EBJl1XHaon186S3sSRvNh5yetssSjRYbfs_p1xsJe_c4hvwUM-P7uVd1VovcPZ2fgNOD9USxiZv3h-_k8TAL-_odKkV-NeS_kTboyUvtVaGYwzJOqhqA9j4V1J7PIOsyE8l]--></g></svg>