<?xml version="1.0" encoding="UTF-8" standalone="no"?><svg xmlns="http://www.w3.org/2000/svg" xmlns:xlink="http://www.w3.org/1999/xlink" contentStyleType="text/css" height="692px" preserveAspectRatio="none" style="width:920px;height:692px;background:#FFFFFF;" version="1.1" viewBox="0 0 920 692" width="920px" zoomAndPan="magnify"><defs/><g><!--MD5=[70745fea48d5f7b75d3e274453d53843]
cluster Clientsystem--><g id="cluster_Clientsystem"><path d="M17,220 L223,220 A7.5,7.5 0 0 1 228,225 L242,264.5938 L309,264.5938 A5,5 0 0 1 314,269.5938 L314,473 A5,5 0 0 1 309,478 L17,478 A5,5 0 0 1 12,473 L12,225 A5,5 0 0 1 17,220 " style="stroke:#000000;stroke-width:3.0;fill:none;"/><line style="stroke:#000000;stroke-width:3.0;fill:none;" x1="12" x2="242" y1="264.5938" y2="264.5938"/><text fill="#000000" font-family="sans-serif" font-size="28" font-weight="bold" lengthAdjust="spacing" textLength="204" x="20" y="249.9902">Clientsystem</text></g><!--MD5=[899f87e56611ae811baaba93b9518920]
cluster Anwendungsfälle--><g id="cluster_Anwendungsfälle"><path d="M375,12 L651,12 A7.5,7.5 0 0 1 656,17 L670,56.5938 L901,56.5938 A5,5 0 0 1 906,61.5938 L906,673 A5,5 0 0 1 901,678 L375,678 A5,5 0 0 1 370,673 L370,17 A5,5 0 0 1 375,12 " style="stroke:#000000;stroke-width:3.0;fill:none;"/><line style="stroke:#000000;stroke-width:3.0;fill:none;" x1="370" x2="670" y1="56.5938" y2="56.5938"/><text fill="#000000" font-family="sans-serif" font-size="28" font-weight="bold" lengthAdjust="spacing" textLength="274" x="378" y="41.9902">Anwendungsfälle</text></g><!--MD5=[7cf1c9dd4630e98362c0697016ffe790]
entity le--><g id="elem_le"><ellipse cx="163" cy="325" fill="#DCDCDC" rx="32" ry="32" style="stroke:#000000;stroke-width:3.0;"/><path d="M163,365 C171,365 177,365 185,357 C201,357 217,373 217,389 L217,397 C217,405 209,413 201,413 L125,413 C117,413 109,405 109,397 L109,389 C109,373 125,357 141,357 C149,365 155,365 163,365 " fill="#DCDCDC" style="stroke:#000000;stroke-width:3.0;"/><text fill="#000000" font-family="Aapex" font-size="26" lengthAdjust="spacing" textLength="238" x="44" y="440.1338">Leistungserbringer</text></g><g id="elem_UC1"><ellipse cx="638.4636" cy="122.4927" fill="#F0F8FF" rx="178.4636" ry="40.4927" style="stroke:#181818;stroke-width:1.0;"/><text fill="#000000" font-family="sans-serif" font-size="28" lengthAdjust="spacing" textLength="280" x="498.4636" y="128.1861">Empfänger ermitteln</text></g><g id="elem_UC2"><ellipse cx="637.9804" cy="285.5585" fill="#F0F8FF" rx="235.9804" ry="52.5585" style="stroke:#181818;stroke-width:1.0;"/><text fill="#000000" font-family="sans-serif" font-size="28" lengthAdjust="spacing" textLength="290" x="482.9804" y="276.7568">Nachricht generieren</text><text fill="#000000" font-family="sans-serif" font-size="28" lengthAdjust="spacing" textLength="242" x="510.9804" y="309.3505">und übernehmen</text></g><g id="elem_UC3"><ellipse cx="638.1134" cy="450.0227" fill="#F0F8FF" rx="181.1134" ry="41.0227" style="stroke:#181818;stroke-width:1.0;"/><text fill="#000000" font-family="sans-serif" font-size="28" lengthAdjust="spacing" textLength="286" x="495.1134" y="455.716">Nachricht versenden</text></g><g id="elem_UC4"><ellipse cx="637.5542" cy="603.9108" fill="#F0F8FF" rx="185.5542" ry="41.9108" style="stroke:#181818;stroke-width:1.0;"/><text fill="#000000" font-family="sans-serif" font-size="28" lengthAdjust="spacing" textLength="296" x="489.5542" y="609.6042">Nachricht empfangen</text></g><!--MD5=[4f6574628f8a04be90f0c9026f6c27e6]
link le to UC1--><g id="link_le_UC1"><path d="M235.9,289.56 C268.96,257.1 310.58,221.6 354,198 C394.38,176.06 441.52,160.12 485.58,148.68 " fill="none" id="le-to-UC1" style="stroke:#000000;stroke-width:2.0;"/><polygon fill="#000000" points="495.5,146.18,476.0855,142.8518,485.807,148.639,480.0199,158.3605,495.5,146.18" style="stroke:#000000;stroke-width:2.0;"/></g><!--MD5=[2151d675b5d6894d64a8a5540b082a98]
link le to UC2--><g id="link_le_UC2"><path d="M282.04,347.62 C329.74,339.32 386.22,329.48 439.88,320.14 " fill="none" id="le-to-UC2" style="stroke:#000000;stroke-width:2.0;"/><polygon fill="#000000" points="449.86,318.4,430.7531,313.6118,440.0087,320.1182,433.5023,329.3739,449.86,318.4" style="stroke:#000000;stroke-width:2.0;"/></g><!--MD5=[3cdedc10274faaca6a28860c803178ec]
link le to UC3--><g id="link_le_UC3"><path d="M282.04,388.38 C342.8,398.96 417.82,412.02 483.12,423.38 " fill="none" id="le-to-UC3" style="stroke:#000000;stroke-width:2.0;"/><polygon fill="#000000" points="493.5,425.2,477.1369,414.2342,483.6479,423.4866,474.3955,429.9976,493.5,425.2" style="stroke:#000000;stroke-width:2.0;"/></g><!--MD5=[49a0bd3bf78e57e5f9cc9de5b5991765]
link le to UC4--><g id="link_le_UC4"><path d="M243.18,446.3 C275.3,474.82 314.24,505.14 354,526 C394.14,547.06 440.58,562.92 484.02,574.64 " fill="none" id="le-to-UC4" style="stroke:#000000;stroke-width:2.0;"/><polygon fill="#000000" points="493.84,577.22,478.4615,564.9115,484.1678,574.6807,474.3985,580.387,493.84,577.22" style="stroke:#000000;stroke-width:2.0;"/></g><!--MD5=[26646cc880ad412cbc7dd0b836d5943b]
@startuml
/'
# KIM 1.5.x
# Primaersystemleitfaden
# Use Case Diagram
# Anwendungsfaelle
'/


skinparam actorStyle awesome
left to right direction
scale 6/3

skinparam sequence {
ArrowColor black
ArrowFontSize 17
ActorBorderColor black
LifeLineBorderColor black
LifeLineBackgroundColor Gainsboro

ParticipantBorderColor Motivation
ParticipantBackgroundColor Motivation
ParticipantFontName Impact
ParticipantFontSize 20
ParticipantFontColor black
ParticipantBorderColor Black
ParticipantBackgroundColor MOTIVATION

ActorBackgroundColor Gainsboro
ActorFontColor black
ActorFontSize 13
ActorFontName Aapex
}

package Clientsystem {
  actor "Leistungserbringer" as le
}

package Anwendungsfälle {
  usecase "Empfänger ermitteln" as UC1 #AliceBlue
  usecase "Nachricht generieren \nund übernehmen" as UC2 #AliceBlue
  usecase "Nachricht versenden" as UC3 #AliceBlue
  usecase "Nachricht empfangen" as UC4 #AliceBlue
}

le - -> UC1
le - -> UC2
le - -> UC3
le - -> UC4

@enduml

@startuml


skinparam actorStyle awesome
left to right direction
scale 6/3

skinparam sequence {
ArrowColor black
ArrowFontSize 17
ActorBorderColor black
LifeLineBorderColor black
LifeLineBackgroundColor Gainsboro

ParticipantBorderColor Motivation
ParticipantBackgroundColor Motivation
ParticipantFontName Impact
ParticipantFontSize 20
ParticipantFontColor black
ParticipantBorderColor Black
ParticipantBackgroundColor MOTIVATION

ActorBackgroundColor Gainsboro
ActorFontColor black
ActorFontSize 13
ActorFontName Aapex
}

package Clientsystem {
  actor "Leistungserbringer" as le
}

package Anwendungsfälle {
  usecase "Empfänger ermitteln" as UC1 #AliceBlue
  usecase "Nachricht generieren \nund übernehmen" as UC2 #AliceBlue
  usecase "Nachricht versenden" as UC3 #AliceBlue
  usecase "Nachricht empfangen" as UC4 #AliceBlue
}

le - -> UC1
le - -> UC2
le - -> UC3
le - -> UC4

@enduml

PlantUML version 1.2022.5(Sat Apr 30 10:55:52 UTC 2022)
(GPL source distribution)
Java Runtime: OpenJDK Runtime Environment
JVM: OpenJDK 64-Bit Server VM
Default Encoding: UTF-8
Language: en
Country: null
--></g></svg>